<svg width="56" height="56" viewBox="0 0 56 56" fill="none" xmlns="http://www.w3.org/2000/svg">
<g clip-path="url(#clip0_578_109)">
<path d="M28.0644 56C12.554 56.0428 0.0429552 43.5318 0.000108978 27.9786C-0.0427372 12.4682 12.554 0 28.2358 0C43.3605 0 56.0001 12.6396 56.0001 27.8072C56.043 43.4032 43.5747 55.9572 28.0644 56ZM3.98481 28.0643C3.98481 41.2609 14.7821 52.0153 27.9787 52.0153C41.2182 52.0153 51.9726 41.2609 51.9726 28.0214C51.9726 14.7819 41.2182 4.02754 28.0215 4.02754C14.7392 3.9847 3.98481 14.7391 3.98481 28.0643Z" fill="white"/>
<path d="M18.981 26.0077C19.1952 26.0077 19.4523 26.0077 19.6665 26.0077C27.0361 26.0077 34.4056 26.0077 41.7752 26.0077C43.3605 26.0077 44.3459 27.3359 43.8318 28.707C43.5747 29.521 42.8463 29.9924 41.8609 29.9924C38.5188 29.9924 35.1768 29.9924 31.8777 29.9924C27.8073 29.9924 23.7369 29.9924 19.7094 29.9924C19.4523 29.9924 19.2381 29.9924 18.8524 29.9924C19.0667 30.2494 19.2381 30.4208 19.3666 30.5494C22.7086 33.8914 26.0078 37.1905 29.3069 40.4897C30.4209 41.6037 30.121 43.3604 28.7071 43.8745C27.8501 44.1744 27.1218 43.9602 26.4791 43.3175C24.7652 41.6037 23.0085 39.847 21.2947 38.1331C18.4668 35.3053 15.639 32.4774 12.854 29.6924C11.6971 28.5356 11.6971 27.4644 12.854 26.3076C17.3957 21.7659 21.9374 17.2242 26.4791 12.6825C27.6788 11.4828 29.5211 11.8684 29.9496 13.4537C30.1638 14.2678 29.9068 14.9533 29.3069 15.5532C26.0078 18.8523 22.7086 22.1086 19.4094 25.4078C19.2381 25.5363 19.0667 25.6649 18.8524 25.7934C18.8953 25.8791 18.9381 25.922 18.981 26.0077Z" fill="white"/>
</g>
<defs>
<clipPath id="clip0_578_109">
<rect width="56" height="56" fill="white"/>
</clipPath>
</defs>
</svg>
