<svg width="56" height="56" viewBox="0 0 56 56" fill="none" xmlns="http://www.w3.org/2000/svg">
<g clip-path="url(#clip0_578_121)">
<path d="M27.9356 -2.45347e-06C43.446 -0.042844 55.957 12.4682 55.9999 28.0214C56.0427 43.5318 43.446 56 27.7642 56C12.6395 56 -0.000105707 43.3604 -0.000104381 28.1928C-0.0429497 12.5968 12.4253 0.0428429 27.9356 -2.45347e-06ZM52.0152 27.9357C52.0152 14.7391 41.218 3.98469 28.0213 3.98469C14.7818 3.98469 4.02744 14.7391 4.02744 27.9786C4.02744 41.2181 14.7818 51.9725 27.9785 51.9725C41.2608 52.0153 52.0152 41.2609 52.0152 27.9357Z" fill="white"/>
<path d="M37.019 29.9924C36.8048 29.9924 36.5477 29.9924 36.3335 29.9924C28.9639 29.9924 21.5944 29.9924 14.2248 29.9924C12.6395 29.9924 11.6541 28.6641 12.1682 27.2931C12.4253 26.479 13.1537 26.0077 14.1391 26.0077C17.4812 26.0077 20.8232 26.0077 24.1223 26.0077C28.1927 26.0077 32.2631 26.0077 36.2906 26.0077C36.5477 26.0077 36.762 26.0077 37.1476 26.0077C36.9333 25.7506 36.762 25.5792 36.6334 25.4507C33.2914 22.1087 29.9922 18.8095 26.6931 15.5104C25.5791 14.3964 25.879 12.6397 27.2929 12.1255C28.1499 11.8256 28.8782 12.0398 29.5209 12.6825C31.2348 14.3964 32.9915 16.1531 34.7053 17.8669C37.5332 20.6947 40.361 23.5226 43.146 26.3076C44.3029 27.4645 44.3029 28.5356 43.146 29.6925C38.6043 34.2342 34.0626 38.7758 29.5209 43.3175C28.3212 44.5172 26.4789 44.1316 26.0504 42.5463C25.8362 41.7322 26.0932 41.0467 26.6931 40.4468C29.9922 37.1477 33.2914 33.8914 36.5906 30.5922C36.7619 30.4637 36.9333 30.3351 37.1476 30.2066C37.1047 30.1209 37.0619 30.0781 37.019 29.9924Z" fill="white"/>
</g>
<defs>
<clipPath id="clip0_578_121">
<rect width="56" height="56" fill="white" transform="translate(56 56) rotate(-180)"/>
</clipPath>
</defs>
</svg>
