<svg width="101" height="123" viewBox="0 0 101 123" fill="none" xmlns="http://www.w3.org/2000/svg">
<g id="group_1" fill="white">
<path d="M73.5375 0C73.9937 0.0912463 74.3587 0.273739 74.8148 0.364985C79.9241 1.64243 83.4824 6.75223 82.8437 11.9533C82.2051 17.428 77.7344 21.6254 72.2602 21.7166C66.6947 21.8079 62.2241 17.8843 61.3117 12.227C60.5818 7.02597 64.0488 1.91617 69.1581 0.456232C69.7055 0.273739 70.1617 0.182493 70.7091 0C71.6215 0 72.6251 0 73.5375 0Z"/>
<path d="M86.4932 43.342C84.121 43.342 81.8401 43.342 79.3767 43.342C79.1942 47.9956 77.3694 51.8279 73.6287 54.6565C71.1653 56.6639 68.2457 57.6677 64.9611 57.6677C64.9611 52.9229 64.9611 48.178 64.9611 43.342C62.4977 43.342 60.1255 43.342 57.7534 43.342C57.7534 48.0868 57.7534 52.8316 57.7534 57.5764C52.9178 57.5764 48.1734 57.5764 43.2466 57.5764C43.2466 57.2114 43.2466 56.7552 43.2466 56.299C43.3378 52.2841 43.4291 48.178 43.5203 44.1632C43.5203 43.0683 44.0677 42.612 45.0713 42.247C51.093 40.3309 55.0162 36.2248 56.841 30.2938C57.1147 29.5638 57.5709 29.1988 58.3008 29.1076C59.4869 29.0163 60.673 28.8338 61.8591 28.8338C69.7055 28.8338 77.5519 29.0163 85.3983 28.7426C93.8834 28.4688 101.639 35.0386 100.909 45.1669C99.9051 60.1313 90.3252 72.8145 76.1834 77.5594C71.1653 79.293 65.8735 79.5668 60.673 79.293C56.841 79.1105 54.0126 75.6432 54.1039 71.8108C54.1951 68.0697 57.3884 64.9674 61.2204 64.8761C64.3225 64.8761 67.3333 64.9674 70.4354 64.1461C79.6504 61.865 86.7669 52.6491 86.4932 43.342Z"/>
<path d="M67.1509 123H62.7715C60.0344 123 57.7534 120.81 57.7534 117.981V86.5015C58.2096 86.5015 58.6658 86.5015 59.122 86.5015C63.5014 86.319 67.8808 86.4102 72.169 85.7715C80.1066 84.7678 87.0407 81.2092 93.0624 76.0082C93.2448 75.9169 93.3361 75.7344 93.6098 75.5519V117.981C93.6098 120.719 91.4201 123 88.5917 123H84.3036C81.5664 123 79.2855 120.81 79.2855 117.981V93.8012C76.8221 93.8012 74.5411 93.8012 72.0777 93.8012V118.073C72.169 120.81 69.888 123 67.1509 123Z"/>
</g>
<g id="group_2" fill="white">
<path d="M21.6233 64.9674C19.1599 64.9674 16.879 64.9674 14.5068 64.9674C14.5068 65.3323 14.4155 65.6061 14.4155 65.9711C14.4155 69.0734 14.4155 72.1758 14.4155 75.3694C14.4155 81.8479 19.0687 86.5015 25.5465 86.5015C29.0135 86.5015 32.3893 86.5015 35.9476 86.5015C35.9476 93.8924 35.9476 101.192 35.9476 108.583C23.9955 108.583 12.0434 108.583 0 108.583C0 108.127 0 107.762 0 107.397C0 92.1588 0 76.8294 0 61.5912C0 47.8131 8.21138 35.951 21.0759 31.0237C21.5321 30.8412 21.9883 30.75 22.4444 30.5675C24.8166 37.046 29.196 41.2433 36.0388 42.8858C36.0388 50.0942 36.0388 57.3939 36.0388 64.7849C40.327 64.7849 44.4327 64.7849 48.8121 64.7849C46.2575 69.7122 46.2575 74.457 48.9033 79.293C48.3559 79.293 47.991 79.293 47.626 79.293C40.4182 79.293 33.2105 79.293 26.0027 79.293C23.0831 79.293 21.7145 77.9243 21.7145 75.0957C21.6233 71.7196 21.6233 68.3435 21.6233 64.9674Z"/>
<path d="M39.6884 14.4169C45.71 14.4169 50.5456 19.3442 50.4544 25.3665C50.4544 31.2975 45.5276 36.1335 39.5971 36.0423C33.6667 36.0423 28.7398 31.115 28.8311 25.0927C28.9223 19.253 33.7579 14.4169 39.6884 14.4169Z"/>
<path d="M7.29901 115.883C14.5068 115.883 21.6233 115.883 28.7398 115.883C28.7398 118.255 28.7398 120.536 28.7398 123C21.6233 123 14.5068 123 7.29901 123C7.29901 120.719 7.29901 118.346 7.29901 115.883Z"/>
</g>
<defs>
<filter id="filter0_b_586_277" x="-4" y="-4" width="108.956" height="131" filterUnits="userSpaceOnUse" color-interpolation-filters="sRGB">
<feFlood flood-opacity="0" result="BackgroundImageFix"/>
<feGaussianBlur in="BackgroundImageFix" stdDeviation="2"/>
<feComposite in2="SourceAlpha" operator="in" result="effect1_backgroundBlur_586_277"/>
<feBlend mode="normal" in="SourceGraphic" in2="effect1_backgroundBlur_586_277" result="shape"/>
</filter>
</defs>
</svg>
