<svg width="100" height="100" viewBox="0 0 100 100" fill="none" xmlns="http://www.w3.org/2000/svg">
<g clip-path="url(#clip0_581_165)">
<path d="M0 72.261C0.21575 71.3435 0.377562 70.4261 0.647249 69.5087C1.88781 65.5691 4.31499 62.601 7.82093 60.4963C8.19849 60.2264 8.62999 59.8487 8.7918 59.4169C11.4887 53.2647 14.0777 47.1126 16.8285 41.0143C19.0938 36.0494 23.0313 33.4051 28.479 33.3511C32.74 33.2971 37.0011 33.3511 41.2621 33.2971C41.9633 33.2971 42.1791 33.513 42.3409 34.1606C42.9342 36.3192 43.6354 38.4779 44.2826 40.5826C44.4444 40.9064 44.6063 41.2302 44.7681 41.608C44.3366 41.608 43.959 41.608 43.6354 41.608C38.781 41.608 33.9266 41.608 29.0723 41.608C26.8069 41.608 25.2427 42.5254 24.3797 44.6841C22.5998 48.9474 20.712 53.1568 18.8781 57.3662C18.7702 57.636 18.6624 57.9059 18.5545 58.3376C19.0399 58.3376 19.4175 58.3376 19.795 58.3376C32.3085 58.3376 44.7681 58.3376 57.2816 58.3916C57.8749 58.3916 58.63 58.6614 59.1154 59.0392C62.6753 61.6835 66.397 63.9501 70.4423 65.731C73.5167 67.0262 76.5912 67.0802 79.6116 65.731C81.6613 64.8136 83.603 63.7342 85.5987 62.6549C86.0841 62.3851 86.4078 62.3311 86.8393 62.7629C89.8058 65.6231 91.5858 69.023 91.6397 73.1244C91.7476 78.7369 91.7476 84.3495 91.6397 89.908C91.5858 94.9269 88.0259 98.9204 83.0636 99.8918C82.9018 99.9458 82.794 99.9998 82.6321 100.054C81.7152 100.054 80.7983 100.054 79.8813 100.054C79.7195 99.9998 79.6116 99.8918 79.4498 99.8918C74.4876 98.9744 71.0356 94.9269 70.8738 89.8541C70.8738 89.0985 70.8738 88.397 70.8738 87.6414C54.1532 87.6414 37.5405 87.6414 20.8738 87.6414C20.8738 88.289 20.8738 88.8827 20.8738 89.4223C20.7659 94.2793 18.0151 98.1649 13.5922 99.568C12.9989 99.7839 12.3517 99.8918 11.7044 100.054C10.7875 100.054 9.87055 100.054 8.95361 100.054C8.73786 99.9998 8.52211 99.8918 8.30636 99.8379C4.42287 98.9204 1.77994 96.5999 0.431499 92.7682C0.323625 92.2286 0.161812 91.635 0 91.0413C0 84.7812 0 78.5211 0 72.261ZM20.9277 70.8578C19.4714 70.8578 18.069 70.8039 16.6127 70.8578C14.2395 70.9118 12.4595 72.7467 12.4595 75.0133C12.4595 77.2798 14.2395 79.1147 16.5588 79.1147C19.3635 79.1687 22.2222 79.1687 25.027 79.1147C27.3463 79.0607 29.0723 77.2798 29.0723 75.0133C29.0723 72.6927 27.3463 70.9118 24.973 70.8578C23.6785 70.8039 22.2762 70.8578 20.9277 70.8578ZM70.8198 79.1687C72.2762 79.1687 73.6785 79.2226 75.1348 79.1687C77.4542 79.1147 79.1802 77.2798 79.1802 75.0133C79.1802 72.7467 77.4542 70.9118 75.1348 70.9118C72.3301 70.8578 69.4714 70.8578 66.6667 70.9118C64.3474 70.9658 62.5674 72.7467 62.5674 75.0133C62.5674 77.2798 64.3474 79.1147 66.6667 79.2226C68.0151 79.1687 69.4175 79.1687 70.8198 79.1687Z" fill="#0E657A"/>
<path d="M99.8921 19.8056C99.8921 23.1515 100.054 26.4435 99.8382 29.7354C99.4606 35.348 97.1953 40.3129 93.6893 44.6842C89.0507 50.5665 83.1715 54.7759 76.4293 57.9599C75.5124 58.3917 74.5955 58.4996 73.6785 58.0679C66.0194 54.4521 59.439 49.5951 54.6386 42.5255C51.6181 37.8304 50 32.7036 50 27.0371C50 21.6405 50 16.2978 50 10.9011C50 9.0123 50.7012 7.98693 52.4811 7.3933C59.5469 5.01877 66.5588 2.64424 73.6246 0.21575C74.5955 -0.108049 75.5124 -0.108049 76.4833 0.21575C83.4951 2.59028 90.507 4.96481 97.5189 7.3933C99.3527 8.0409 100.054 9.0123 100.054 10.9551C100.054 13.8693 100.054 16.8374 100.054 19.7516C100 19.8056 99.9461 19.8056 99.8921 19.8056ZM73.4088 29.3577C71.9525 28.1704 70.6041 26.9832 69.2017 25.8499C67.4218 24.4467 64.9407 24.7166 63.4844 26.4435C62.028 28.1704 62.1359 30.7068 63.8619 32.2179C66.2891 34.3766 68.7163 36.4273 71.1974 38.532C73.1392 40.151 75.6203 39.8812 77.2384 37.8844C78.0475 36.859 78.8565 35.8337 79.6656 34.8083C82.5782 31.0846 85.5448 27.3609 88.4574 23.5833C89.9676 21.6405 89.8598 19.3199 88.2416 17.7549C86.4078 16.0279 83.657 16.2438 82.0388 18.2945C79.3959 21.5865 76.8069 24.9324 74.164 28.2784C74.0022 28.6561 73.6785 28.9799 73.4088 29.3577Z" fill="#FF6F59"/>
</g>
<defs>
<clipPath id="clip0_581_165">
<rect width="100" height="100" fill="white"/>
</clipPath>
</defs>
</svg>
