<svg width="80" height="80" viewBox="0 0 80 80" fill="none" xmlns="http://www.w3.org/2000/svg">
<path fill-rule="evenodd" clip-rule="evenodd" d="M38.5748 0.00997641C38.3822 0.0199801 37.8533 0.0516919 37.3994 0.0804525C25.0994 0.859791 13.8618 7.29573 6.87645 17.5614C0.509995 26.9175 -1.56357 38.6498 1.1921 49.7233C2.44416 54.7547 4.72521 59.585 7.81935 63.7573C13.0486 70.8086 20.3664 75.9293 28.7211 78.3834C30.0667 78.7787 31.7684 79.1761 32.9977 79.3822C33.2591 79.4261 33.5348 79.4744 33.6105 79.4896L33.748 79.5173V65.5582V51.599H28.6711H23.5942V45.7969V39.9947H28.6684H33.7427L33.7621 34.6303C33.783 28.8906 33.7783 29.0083 34.0483 27.432C34.4915 24.8441 35.4985 22.4937 36.9485 20.6626C38.6822 18.4731 41.2366 16.886 44.2269 16.1404C46.5591 15.5589 49.0709 15.4575 52.9551 15.7879C54.5887 15.9269 57.086 16.2291 57.7194 16.3645L57.8569 16.3939V21.3168V26.2396L55.1935 26.2401C52.4324 26.2407 51.6666 26.2763 50.8449 26.4424C48.6288 26.8905 47.1336 28.2351 46.5588 30.297C46.2884 31.267 46.2863 31.3067 46.2654 35.8057L46.246 39.9947H51.8014C54.8568 39.9947 57.3568 40.0081 57.3568 40.0244C57.3568 40.1205 55.5942 51.5279 55.5743 51.56C55.561 51.5814 53.4583 51.599 50.9014 51.599H46.2526V65.5582V79.5173L46.3902 79.4896C46.4659 79.4744 46.7416 79.4261 47.0029 79.3822C48.2322 79.1761 49.934 78.7787 51.2795 78.3834C64.3085 74.5563 74.5601 64.3046 78.389 51.2739C80.6537 43.5662 80.5274 35.2119 78.0307 27.5651C73.662 14.1857 62.4597 4.00421 48.7536 0.956177C46.7837 0.518115 44.8208 0.23481 42.6763 0.079052C41.9397 0.0255322 39.1725 -0.0210851 38.5748 0.00997641Z" fill="white"/>
</svg>
