<svg viewBox="0 0 76 86" fill="none" xmlns="http://www.w3.org/2000/svg">
<path d="M38 78C58.9868 78 76 60.5391 76 39C76 17.4609 58.9868 0 38 0C17.0132 0 0 17.4609 0 39C0 60.5391 17.0132 78 38 78Z" fill="white"/>
<path d="M34.045 55.6909V56.8407C34.045 63.7972 34.045 70.753 34.045 77.708C34.045 78.9169 34.3417 79.2191 35.5287 79.2191C37.8338 79.2191 40.1373 79.2191 42.4394 79.2191C43.8759 79.2191 44.094 78.9919 44.0963 77.5399C44.1052 71.4923 44.1157 65.4447 44.1277 59.3971C44.1277 58.1882 44.1817 56.9816 44.2132 55.6886H45.2338C47.3965 55.6886 49.5592 55.6886 51.7218 55.6886C52.6413 55.6886 53.2461 55.2341 53.3495 54.4138C53.662 51.9141 53.9632 49.4145 54.1993 46.9013C54.3229 45.5969 53.7316 45.0402 52.412 45.0379C49.9683 45.0379 47.5246 45.0379 45.0809 45.0379H44.148C44.148 42.5383 44.0693 40.1227 44.1727 37.7231C44.2671 35.5143 45.317 34.1168 48.3092 34.0464C49.5164 34.0191 50.7237 34.0464 51.9332 34.0464C53.4124 34.0464 53.9722 33.4851 53.9834 32.0012C53.9834 30.2128 53.9834 28.4245 53.9834 26.6361C53.9848 26.3245 53.9486 26.0139 53.8755 25.7112C53.7092 25.0295 53.2371 24.6046 52.5559 24.6114C49.6671 24.6478 46.7625 24.5455 43.8962 24.8273C40.8815 25.0954 38.3703 26.5884 36.5291 29.088C34.8273 31.4058 34.1551 34.0873 34.0562 36.9028C33.982 39.2865 34.036 41.6748 34.0337 44.0585V45.0243H28.7079C27.2332 45.0243 26.7633 45.5083 26.7656 47.024C26.7656 49.2395 26.7813 51.4528 26.7881 53.6684C26.7881 55.2182 27.2512 55.6795 28.8114 55.6818C30.5132 55.6931 32.233 55.6909 34.045 55.6909Z" fill="#306372"/>
</svg>
