<svg width="100" height="100" viewBox="0 0 100 100" fill="none" xmlns="http://www.w3.org/2000/svg">
<g clip-path="url(#clip0_581_215)">
<path d="M48.2102 83.08C43.453 82.8348 39.1371 81.6577 34.9684 79.5488C35.7531 78.2247 36.4888 76.9005 37.2244 75.6254C37.911 74.4483 37.7149 73.3694 36.734 72.8299C35.8022 72.3394 34.8213 72.6827 34.1347 73.8107C33.399 75.0859 32.6634 76.361 31.8296 77.7342C27.9061 75.184 24.7183 71.9961 22.119 68.0726C23.4922 67.2879 24.8654 66.5032 26.1896 65.7185C27.0724 65.2281 27.4647 64.4924 27.1705 63.4625C26.8272 62.3836 25.6501 61.9422 24.5221 62.5307C23.0999 63.2664 21.7757 64.1001 20.3044 64.9338C18.1955 60.7651 17.0184 56.4493 16.8223 51.6921C18.3426 51.6921 19.8139 51.6921 21.2362 51.6921C22.6585 51.6921 23.4922 51.0545 23.4922 49.9265C23.5412 48.7985 22.6585 48.1119 21.1872 48.1119C19.7649 48.1119 18.3917 48.1119 16.8223 48.1119C17.0184 43.4037 18.2445 39.0878 20.3044 34.8701C21.6776 35.6548 22.9527 36.3904 24.2279 37.1261C25.503 37.8127 26.4839 37.6656 27.0724 36.7828C27.6609 35.8019 27.2686 34.772 26.1406 34.0854C24.8654 33.3007 23.5412 32.565 22.2661 31.8294C23.6393 28.9848 28.3966 24.1295 31.8787 22.1678C32.6634 23.492 33.399 24.8652 34.2328 26.1894C34.8703 27.2193 35.9002 27.5135 36.783 27.0231C37.6658 26.5327 37.911 25.5027 37.3716 24.5219C36.6359 23.1487 35.8022 21.7754 35.0665 20.4513C37.3716 18.6857 44.8752 16.6258 48.2102 16.9201C48.2102 18.3424 48.2102 19.8137 48.2102 21.2359C48.2102 22.6582 48.8968 23.492 49.9758 23.492C51.0547 23.492 51.7904 22.6582 51.7904 21.285C51.7904 19.8627 51.7904 18.3914 51.7904 16.822C56.4986 17.0182 60.8144 18.1952 65.0322 20.3041C64.2475 21.6773 63.5118 23.0506 62.7271 24.3747C62.3348 25.0614 62.1876 25.748 62.629 26.4836C63.3647 27.6116 64.9341 27.5626 65.6697 26.3365C66.5035 25.0123 67.2882 23.59 68.1219 22.1187C72.0454 24.669 75.2332 27.8568 77.7835 31.7803C76.4593 32.565 75.1842 33.3007 73.9091 34.0363C72.732 34.723 72.3397 35.7529 72.8792 36.6847C73.4186 37.6656 74.4976 37.8127 75.6746 37.1261C76.9498 36.3904 78.1759 35.7038 79.5491 34.8701C81.658 39.0388 82.835 43.3546 83.0802 48.1119C81.5599 48.1119 80.1867 48.1119 78.7644 48.1119C77.244 48.1119 76.4103 48.7494 76.4103 49.8774C76.4103 51.0545 77.244 51.6921 78.8625 51.6921C80.2357 51.6921 81.6089 51.6921 83.1293 51.6921C82.9331 56.4002 81.707 60.7651 79.6472 64.9338C78.274 64.1491 76.9988 63.4135 75.6746 62.6778C74.4976 61.9912 73.4186 62.1874 72.8792 63.1683C72.3887 64.1001 72.732 65.081 73.9091 65.7676C75.1842 66.5032 76.4593 67.2389 77.7345 67.9745C76.4103 70.8191 71.555 75.7234 68.1219 77.6852C67.3372 76.361 66.6016 74.9878 65.7678 73.6636C65.1793 72.6337 64.1984 72.3394 63.3156 72.7318C62.3838 73.1732 62.0405 74.3012 62.629 75.2821C63.4137 76.6553 64.1984 78.0285 65.0322 79.4998C60.8635 81.6087 56.5476 82.7857 51.7904 82.9819C51.7904 81.4616 51.7904 80.0393 51.7904 78.568C51.7904 77.1457 51.1528 76.312 50.0248 76.312C48.8968 76.2629 48.2102 77.1457 48.2102 78.617C48.2102 80.0883 48.2102 81.5106 48.2102 83.08ZM48.2102 39.4311C48.2102 42.3738 48.2592 45.3164 48.2102 48.259C48.2102 49.7303 48.5535 51.0054 49.2892 52.2806C51.2509 55.5665 53.1636 58.9015 55.0763 62.1874C55.5667 62.9721 55.9591 63.8058 56.4986 64.5905C57.0381 65.3752 57.8718 65.5714 58.7546 65.13C59.5883 64.6886 59.9316 63.7568 59.5393 62.825C59.3922 62.4817 59.196 62.1874 58.9998 61.8441C56.7928 58.0677 54.5368 54.2914 52.3789 50.466C51.9866 49.7794 51.7413 48.9456 51.7413 48.1609C51.6923 42.1776 51.6923 36.1943 51.6923 30.1619C51.6923 28.6415 51.0547 27.8078 49.9267 27.8078C48.7987 27.8078 48.1121 28.6415 48.1121 30.1129C48.2102 33.2516 48.2102 36.3414 48.2102 39.4311Z" fill="#0E657A"/>
<path d="M89.5531 80.6769C91.9072 80.0884 93.967 79.5489 96.0268 79.0094C96.8115 78.8132 97.6943 78.8132 98.0867 79.647C98.3319 80.1865 98.3319 81.0202 98.1357 81.6087C98.0376 82.0011 97.4 82.3444 96.9096 82.4425C93.3785 83.3743 89.8473 84.3552 86.3162 85.1889C84.3544 85.6794 82.687 84.3061 82.8341 82.2463C83.0303 78.6661 83.3245 75.0369 83.6678 71.4567C83.7659 70.1325 84.5506 69.4459 85.6786 69.593C86.7576 69.6911 87.2971 70.5249 87.199 71.8981C87.0518 73.9579 86.9047 76.0177 86.7085 78.4209C87.1499 77.8814 87.3461 77.5871 87.5913 77.2438C100.441 59.8333 99.2147 34.8701 84.5997 18.9309C74.5457 7.94516 61.9905 2.84462 47.1794 3.53123C25.9435 4.56115 7.69921 20.8927 4.16807 41.8834C0.293623 64.9339 13.3883 86.7583 35.6051 94.1149C39.9209 95.5371 44.3348 96.2237 48.8468 96.4199C49.4844 96.469 50.3181 96.8123 50.7595 97.2537C51.0538 97.597 51.1028 98.5778 50.8086 98.9702C50.4653 99.4606 49.6806 99.9511 49.0921 99.902C46.1494 99.7058 43.1578 99.6568 40.3623 98.9702C20.3034 94.4091 7.0126 82.2463 1.66684 62.3836C-5.59162 35.3115 11.2304 7.94516 38.6458 1.37331C65.6198 -5.10045 93.3294 12.4081 98.8714 39.5783C101.863 54.1933 98.9204 67.5822 90.2397 79.696C90.0435 79.8922 89.8964 80.1374 89.5531 80.6769Z" fill="#FF6F59"/>
</g>
<defs>
<clipPath id="clip0_581_215">
<rect width="100" height="99.951" fill="white"/>
</clipPath>
</defs>
</svg>
