<svg width="148" height="121" viewBox="0 0 148 121" fill="none" xmlns="http://www.w3.org/2000/svg">
<g clip-path="url(#clip0_578_93)">
<path d="M94.2309 121C62.7606 121 31.4702 121 0 121C0 120.371 0 119.831 0 119.292C0 98.4361 0 77.4903 0 56.6344C0 52.5891 1.97813 48.9034 5.21507 46.7459C19.1519 37.4866 33.0887 28.2273 46.9356 18.968C47.8348 18.3388 48.4642 18.0691 49.4532 18.7882C62.7606 27.6879 76.068 36.5876 89.3755 45.3975C92.4326 47.4651 94.2309 50.8811 94.2309 54.5668C94.2309 76.3217 94.2309 98.0765 94.2309 119.741C94.2309 120.101 94.2309 120.461 94.2309 121ZM80.7436 107.516C80.7436 106.976 80.8335 106.617 80.8335 106.257C80.8335 89.5364 80.8335 72.7258 80.8335 56.0052C80.8335 54.8365 80.2041 54.387 79.4848 53.9376C69.5942 47.6448 59.7035 41.442 49.8129 35.0594C48.644 34.3402 47.9247 34.3402 46.7558 35.1493C36.1458 41.8915 25.5358 48.6337 14.836 55.3759C13.8469 56.0052 13.4872 56.7243 13.4872 57.893C13.5772 73.8945 13.4872 89.8061 13.4872 105.808C13.4872 106.347 13.4872 106.796 13.4872 107.426C20.3208 107.426 26.8846 107.426 33.7181 107.426C33.7181 94.0312 33.7181 80.6367 33.7181 67.2422C42.7096 67.2422 51.5213 67.2422 60.6027 67.2422C60.6027 80.7266 60.6027 94.0312 60.6027 107.426C67.4362 107.516 74 107.516 80.7436 107.516Z" fill="#303030"/>
<path d="M107.808 118.573V109.853C107.808 108.594 108.797 107.516 110.146 107.516H132.265C133.523 107.516 134.602 106.527 134.602 105.178V15.8216C134.602 14.5631 133.613 13.4843 132.265 13.4843H74.0897C74.0897 15.1924 74.0897 16.9903 74.0897 19.0579C71.5721 17.26 69.2343 15.8216 66.8965 14.2934C65.0982 13.1248 63.2999 11.9561 61.5016 10.6976C61.052 10.4279 60.6025 9.88851 60.6025 9.43903C60.5125 6.38256 60.6025 3.2362 60.6025 0.0898438H145.752C147.011 0.0898438 148.09 1.0787 148.09 2.42714V118.753C148.09 120.011 147.101 121.09 145.752 121.09H110.146C108.887 120.91 107.808 119.921 107.808 118.573Z" fill="#303030"/>
<path d="M107.898 38.6553V28.4071C107.898 27.5082 108.617 26.8789 109.427 26.8789H119.497C120.396 26.8789 121.026 27.5981 121.026 28.4071V38.6553C121.026 39.5542 120.306 40.1835 119.497 40.1835H109.427C108.527 40.1835 107.898 39.4643 107.898 38.6553Z" fill="#303030"/>
<path d="M109.427 80.7266H119.587C120.396 80.7266 121.115 81.4457 121.115 82.2548V92.5029C121.115 93.312 120.396 94.0312 119.587 94.0312H109.427C108.617 94.0312 107.898 93.312 107.898 92.5029V82.2548C107.898 81.4457 108.527 80.7266 109.427 80.7266Z" fill="#303030"/>
<path d="M109.427 53.8477H119.497C120.396 53.8477 121.026 54.5668 121.026 55.3759V65.4442C121.026 66.3432 120.306 66.9725 119.497 66.9725H109.427C108.527 66.9725 107.898 66.2533 107.898 65.4442V55.3759C107.898 54.5668 108.527 53.8477 109.427 53.8477Z" fill="#303030"/>
<path d="M94.2307 26.9688C94.2307 28.7667 94.2307 30.4747 94.2307 32.4524C91.4433 30.5646 88.9257 28.8566 85.9585 26.9688C88.9257 26.9688 91.5332 26.9688 94.2307 26.9688Z" fill="#303030"/>
</g>
<defs>
<clipPath id="clip0_578_93">
<rect width="148" height="121" fill="white"/>
</clipPath>
</defs>
</svg>
