<svg width="149" height="121" viewBox="0 0 149 121" fill="none" xmlns="http://www.w3.org/2000/svg">
<g id="group_1" fill="white">
<path d="M94.2309 120.91C62.7606 120.91 31.4702 120.91 0 120.91C0 120.281 0 119.741 0 119.202C0 98.3462 0 77.4004 0 56.5446C0 52.4993 1.97813 48.8135 5.21507 46.656C19.1519 37.3967 33.0887 28.1374 46.9356 18.8782C47.8348 18.2489 48.4642 17.9792 49.4532 18.6984C62.7606 27.5981 76.068 36.4978 89.3755 45.3076C92.4326 47.3752 94.2309 50.7912 94.2309 54.477C94.2309 76.2318 94.2309 97.9866 94.2309 119.652C94.2309 120.011 94.2309 120.371 94.2309 120.91ZM80.7436 107.426C80.7436 106.886 80.8335 106.527 80.8335 106.167C80.8335 89.4465 80.8335 72.636 80.8335 55.9153C80.8335 54.7467 80.2041 54.2972 79.4848 53.8477C69.5942 47.555 59.7035 41.3522 49.8129 34.9695C48.644 34.2504 47.9247 34.2504 46.7558 35.0594C36.1458 41.8016 25.5358 48.5438 14.836 55.286C13.8469 55.9153 13.4872 56.6345 13.4872 57.8031C13.5772 73.8046 13.4872 89.7162 13.4872 105.718C13.4872 106.257 13.4872 106.707 13.4872 107.336C20.3208 107.336 26.8846 107.336 33.7181 107.336C33.7181 93.9413 33.7181 80.5468 33.7181 67.1523C42.7096 67.1523 51.5213 67.1523 60.6027 67.1523C60.6027 80.6367 60.6027 93.9413 60.6027 107.336C67.4362 107.426 74 107.426 80.7436 107.426Z" />
</g>
<g id="group_2" fill="white">
<path d="M107.808 118.483V109.763C107.808 108.504 108.797 107.426 110.146 107.426H132.265C133.524 107.426 134.603 106.437 134.603 105.088V15.7318C134.603 14.4733 133.614 13.3945 132.265 13.3945H74.0899C74.0899 15.1025 74.0899 16.9004 74.0899 18.9681C71.5723 17.1701 69.2345 15.7318 66.8967 14.2036C65.0984 13.0349 63.3001 11.8663 61.5018 10.6077C61.0523 10.338 60.6027 9.79866 60.6027 9.34918C60.5128 6.29272 60.6027 3.14636 60.6027 0H145.752C147.011 0 148.09 0.988856 148.09 2.3373V118.663C148.09 119.921 147.101 121 145.752 121H110.146C108.887 120.82 107.808 119.831 107.808 118.483Z" />
<path d="M107.898 38.5654V28.3172C107.898 27.4183 108.617 26.789 109.426 26.789H119.497C120.396 26.789 121.026 27.5082 121.026 28.3172V38.5654C121.026 39.4643 120.306 40.0936 119.497 40.0936H109.426C108.527 40.0936 107.898 39.3744 107.898 38.5654Z" />
<path d="M109.426 80.6367H119.587C120.396 80.6367 121.115 81.3559 121.115 82.1649V92.4131C121.115 93.2221 120.396 93.9413 119.587 93.9413H109.426C108.617 93.9413 107.898 93.2221 107.898 92.4131V82.1649C107.898 81.3559 108.527 80.6367 109.426 80.6367Z" />
<path d="M109.426 53.7578H119.497C120.396 53.7578 121.026 54.477 121.026 55.286V65.3544C121.026 66.2534 120.306 66.8826 119.497 66.8826H109.426C108.527 66.8826 107.898 66.1635 107.898 65.3544V55.286C107.898 54.477 108.527 53.7578 109.426 53.7578Z" />
<path d="M94.2309 26.8789C94.2309 28.6768 94.2309 30.3848 94.2309 32.3626C91.4435 30.4747 88.9259 28.7667 85.9587 26.8789C88.9259 26.8789 91.5334 26.8789 94.2309 26.8789Z" />
</g>
</svg>
