<svg width="75" height="75" viewBox="0 0 75 75" fill="none" xmlns="http://www.w3.org/2000/svg">
<path d="M68.5883 74.5795C58.9263 74.5795 49.3471 74.5795 39.685 74.5795C39.5192 73.4599 39.3118 72.3402 39.1459 71.2206C38.4824 66.9908 37.8604 62.7611 37.1969 58.5313C36.7822 55.8359 34.5844 53.9284 31.8475 53.8869C31.3499 53.8869 30.8937 53.8869 30.3132 53.8869C30.3132 53.5137 30.3132 53.2234 30.3132 52.9331C30.3132 46.8788 30.3132 40.8244 30.3132 34.7701C30.3132 32.4479 28.7374 30.4988 26.5396 30.0427C23.5125 29.4207 20.734 31.6185 20.734 34.7701C20.6926 40.783 20.734 46.8373 20.734 52.8502C20.734 53.1405 20.734 53.4307 20.734 53.8454C20.3194 53.8454 19.9462 53.8454 19.5729 53.8454C16.3799 53.8454 14.265 55.7115 13.8089 58.8631C13.021 64.0881 12.2331 69.2716 11.4037 74.538C9.74499 74.538 8.0863 74.538 6.3861 74.538C6.3861 74.2478 6.3861 73.999 6.3861 73.7501C6.3861 59.6095 6.3861 45.4689 6.3861 31.3282C6.3861 30.7891 6.55193 30.4574 7.04954 30.1671C17.0434 24.6933 26.9958 19.178 36.9481 13.7042C37.3628 13.4969 37.6531 13.4554 38.0678 13.7042C48.0616 19.2195 58.0554 24.7348 68.0492 30.2086C68.5054 30.4574 68.6712 30.7062 68.6712 31.2453C68.6712 45.4689 68.6712 59.6924 68.6712 73.8745C68.6298 74.0819 68.6298 74.2892 68.5883 74.5795ZM53.8671 46.63C53.8671 46.1738 53.4939 45.7177 52.8719 45.3859C51.4205 44.598 49.9276 43.8101 48.5177 42.9808C48.1445 42.7734 47.8128 42.4002 47.5639 42.027C46.8175 40.783 46.154 39.4974 45.4905 38.2534C45.0759 37.507 44.7441 36.7191 43.7074 36.7191C42.7122 36.7191 42.2975 37.4655 41.9243 38.2119C41.2193 39.5389 40.5143 40.8244 39.7679 42.1514C39.5606 42.4831 39.2703 42.8149 38.8971 42.9808C37.4457 43.8101 35.9943 44.598 34.543 45.3859C33.9209 45.7177 33.5477 46.1738 33.5477 46.8788C33.5477 47.6252 33.9624 48.0813 34.5844 48.4131C36.0358 49.201 37.4872 49.9474 38.8971 50.7768C39.2703 50.9841 39.6021 51.3573 39.8509 51.7305C40.6802 53.1405 41.4682 54.5919 42.2146 56.0432C42.5463 56.6653 43.0025 57.0385 43.7074 57.0799C44.4539 57.0799 44.91 56.6653 45.2417 56.0432C45.9882 54.6333 46.7346 53.2234 47.5639 51.8549C47.8542 51.3988 48.2689 50.9841 48.7251 50.6938C50.0935 49.8645 51.5449 49.118 52.9548 48.3716C53.5354 48.0399 53.8671 47.5837 53.8671 46.63ZM58.0554 30.333C57.3919 30.333 56.8943 30.5818 56.604 31.3697C55.6088 33.8992 53.8671 35.6824 51.2961 36.6361C50.674 36.8849 50.3009 37.3826 50.3009 38.129C50.3009 38.8339 50.674 39.2901 51.2961 39.6218C52.2084 40.1195 53.1207 40.5756 53.9915 41.1147C54.4062 41.405 54.8209 41.7782 55.1112 42.1929C55.6917 43.0637 56.1479 44.0175 56.6455 44.9298C57.3919 46.2567 58.8433 46.2567 59.5897 44.9298C60.1288 43.976 60.6265 42.9808 61.207 42.027C61.4144 41.6953 61.7046 41.3635 62.0364 41.1562C63.0316 40.5341 64.1097 40.0365 65.105 39.456C66.2246 38.7925 66.2246 37.3826 65.105 36.6776C64.5244 36.3044 63.9439 35.9726 63.3219 35.6824C61.9949 35.1433 61.0411 34.231 60.502 32.904C60.2532 32.282 59.88 31.7014 59.5068 31.0794C59.1751 30.5818 58.6774 30.2915 58.0554 30.333Z" fill="white"/>
<path d="M0 24.6935C0.0829363 23.4079 0.663523 22.4127 1.78316 21.7492C5.47383 19.5099 9.12298 17.2707 12.8136 14.9899C20.817 10.0967 28.8618 5.16196 36.8652 0.268714C37.2384 0.0199047 37.5287 -0.145968 38.0263 0.185777C49.7203 7.35977 61.4558 14.5338 73.1498 21.7077C74.5597 22.5786 75.2233 23.947 74.933 25.3569C74.4768 27.6792 72.0717 28.7573 69.9153 27.6377C67.3443 26.2692 64.8148 24.8179 62.2437 23.4079C54.3648 19.0538 46.5273 14.7411 38.6484 10.3869C37.819 9.93079 37.114 9.93079 36.3261 10.3869C26.042 16.0681 15.7164 21.7492 5.43232 27.4718C4.06387 28.2182 2.77839 28.4256 1.45141 27.4718C0.497643 26.8083 0.0414682 25.8546 0 24.6935Z" fill="white"/>
<path d="M16.3385 63.4662C22.4758 63.4662 28.5301 63.4662 34.7089 63.4662C35.2894 67.1154 35.8285 70.806 36.4091 74.5382C34.626 74.5382 32.9258 74.5382 31.1012 74.5382C31.1012 73.5429 31.1012 72.5477 31.1012 71.5939C31.1012 70.5987 30.6036 69.9767 29.7742 69.8523C28.779 69.6864 27.9496 70.3914 27.9496 71.4281C27.9081 72.4648 27.9496 73.46 27.9496 74.5382C26.3323 74.5382 24.7565 74.5382 23.1393 74.5382C23.1393 73.4185 23.1808 72.3404 23.1393 71.3037C23.0978 70.4328 22.4343 69.8523 21.605 69.8108C20.7342 69.8108 20.0707 70.3914 19.9877 71.3037C19.9463 71.6354 19.9877 72.0086 19.9877 72.3404C19.9877 73.0868 19.9877 73.7918 19.9877 74.5796C18.2046 74.5796 16.5044 74.5796 14.6798 74.5796C15.2189 70.8475 15.7994 67.1569 16.3385 63.4662Z" fill="#FF6F59"/>
<path d="M27.1202 53.8454C26.042 53.8454 25.0468 53.8454 23.9686 53.8454C23.9686 53.5552 23.9686 53.3478 23.9686 53.099C23.9686 47.1276 23.9686 41.1562 23.9686 35.1848C23.9686 34.936 23.9686 34.6872 24.0101 34.4383C24.1345 33.6919 24.8394 33.1528 25.5858 33.1528C26.3323 33.1528 26.9543 33.6919 27.0787 34.3969C27.1202 34.6457 27.1202 34.8945 27.1202 35.1433C27.1202 41.1562 27.1202 47.1691 27.1202 53.1405C27.1202 53.3478 27.1202 53.5552 27.1202 53.8454Z" fill="#FF6F59"/>
<path d="M34.1697 60.1901C28.4057 60.1901 22.683 60.1901 16.9604 60.1901C16.8775 58.0753 17.9142 56.9971 19.8217 57.0386C23.5539 57.1215 27.2445 57.08 30.9767 57.08C33.3404 57.08 34.0453 57.7435 34.1697 60.1901Z" fill="#FF6F59"/>
<path d="M15.9652 4.45709C15.9652 5.99141 15.9652 7.52574 15.9652 9.06006C15.9652 9.22593 15.7994 9.3918 15.6335 9.51621C13.726 10.7188 11.777 11.8799 9.86942 13.041C9.82795 13.0825 9.74503 13.0825 9.62062 13.0825C9.62062 10.2212 9.62062 7.35986 9.62062 4.45709C11.694 4.45709 13.8089 4.45709 15.9652 4.45709Z" fill="white"/>
<path d="M43.7075 41.6539C44.6613 44.2664 46.3614 45.9666 48.9739 46.8789C46.4029 47.8742 44.6198 49.4499 43.749 52.1454C42.7537 49.5743 41.095 47.8327 38.441 46.8789C41.0535 45.9666 42.7537 44.2664 43.7075 41.6539Z" fill="#FF6F59"/>
<path d="M55.0697 38.1289C56.604 37.5484 57.5578 36.719 58.0554 35.3091C58.6775 36.5946 59.4654 37.6728 60.9167 38.0874C59.5898 38.7095 58.636 39.5803 58.0969 41.1561C57.5164 39.6218 56.604 38.668 55.0697 38.1289Z" fill="#FF6F59"/>
</svg>
