<svg width="22" height="22" viewBox="0 0 22 22" fill="none" xmlns="http://www.w3.org/2000/svg">
<path d="M15.265 7.82241C14.9472 7.82241 14.6661 7.82241 14.3728 7.82241C14.3484 7.67575 14.3361 7.5413 14.3117 7.38241C14.2261 7.38241 14.1406 7.38241 14.0672 7.38241C13.1139 7.38241 12.1606 7.38241 11.2195 7.38241C10.095 7.37019 9.2028 6.68575 8.93391 5.62241C8.88502 5.42686 8.8728 5.21908 8.8728 5.0113C8.86057 4.20464 8.8728 3.41019 8.8728 2.60352C8.8728 2.53019 8.8728 2.44464 8.8728 2.35908C8.72613 2.34686 8.61613 2.33464 8.49391 2.33464C7.13724 2.33464 5.78057 2.33464 4.42391 2.33464C3.49502 2.33464 2.92057 2.90908 2.92057 3.83797C2.92057 8.6413 2.92057 13.4446 2.92057 18.248C2.92057 19.1891 3.49502 19.7513 4.43613 19.7513C5.67057 19.7513 6.8928 19.7513 8.12724 19.7513C8.2128 19.7513 8.29835 19.7513 8.39613 19.7513C8.39613 20.0569 8.39613 20.3502 8.39613 20.668C8.33502 20.668 8.26168 20.668 8.18835 20.668C6.91724 20.668 5.65835 20.668 4.38724 20.668C2.98168 20.668 2.00391 19.678 2.00391 18.2724C2.00391 13.4569 2.00391 8.62908 2.00391 3.81352C2.00391 2.40797 2.98168 1.41797 4.38724 1.41797C5.76835 1.41797 7.14946 1.41797 8.53057 1.41797C9.17835 1.41797 9.74057 1.63797 10.2295 2.07797C11.635 3.37352 13.0406 4.66908 14.4461 5.95241C14.9839 6.45352 15.2895 7.05241 15.265 7.82241ZM13.5661 6.45352C13.5661 6.4413 13.5784 6.41686 13.5784 6.40464C12.3317 5.25575 11.0728 4.10686 9.78946 2.93352C9.78946 3.74019 9.7528 4.49797 9.80168 5.24352C9.85057 5.95241 10.425 6.4413 11.1461 6.45352C11.5372 6.46575 11.9161 6.45352 12.3072 6.45352C12.7228 6.45352 13.1384 6.45352 13.5661 6.45352Z" fill="#306372"/>
<path d="M10.2422 15.1558C10.2545 12.1125 12.7233 9.65579 15.7545 9.66801C18.7733 9.68024 21.23 12.1491 21.2178 15.1802C21.2056 18.2236 18.7367 20.6802 15.7056 20.668C12.6867 20.6558 10.23 18.1869 10.2422 15.1558ZM20.3011 15.0336C20.1911 12.4791 18.0889 10.4869 15.5956 10.5847C13.0411 10.6947 11.0489 12.8091 11.1467 15.3025C11.2567 17.8569 13.3711 19.8491 15.8522 19.7513C18.4189 19.6413 20.4111 17.5269 20.3011 15.0336Z" fill="#306372"/>
<path d="M18.7737 14.3615C18.5659 14.5693 18.3581 14.7771 18.1259 14.9971C17.5148 14.3737 16.8792 13.7382 16.2559 13.0904C16.2314 13.1026 16.2192 13.1148 16.1948 13.1148C16.1948 14.8504 16.1948 16.5982 16.1948 18.3459C15.877 18.3459 15.5959 18.3459 15.2781 18.3459C15.2781 16.5982 15.2781 14.8504 15.2781 13.0904C14.6181 13.7504 13.9948 14.3859 13.3592 15.0093C13.1148 14.7648 12.907 14.5571 12.6992 14.3371C12.7237 14.3126 12.7603 14.2637 12.8092 14.2148C13.6526 13.3715 14.4837 12.5282 15.327 11.6971C15.6203 11.4037 15.8403 11.4037 16.1337 11.6971C16.9892 12.5526 17.8326 13.3959 18.6759 14.2515C18.7126 14.3004 18.7492 14.3371 18.7737 14.3615Z" fill="#306372"/>
</svg>
