<svg width="42" height="44" viewBox="0 0 42 44" fill="none" xmlns="http://www.w3.org/2000/svg">
<path d="M21.089 43.574C32.6379 43.574 42.0002 33.9653 42.0002 22.1124C42.0002 10.2595 32.6379 0.650879 21.089 0.650879C9.54002 0.650879 0.177734 10.2595 0.177734 22.1124C0.177734 33.9653 9.54002 43.574 21.089 43.574Z" fill="#306372"/>
<path d="M33.9588 21.9747C33.8826 24.0745 33.866 26.1665 33.7188 28.2479C33.4657 31.8046 30.8545 34.4834 27.2948 34.6606C23.8585 34.836 20.4109 34.8044 16.9694 34.7991C15.8386 34.7991 14.6823 34.7114 13.5848 34.4597C10.5988 33.7773 8.51583 31.3819 8.37568 28.2979C8.21889 24.8271 8.23378 21.3466 8.23378 17.8706C8.23378 16.7391 8.32137 15.5804 8.58415 14.4831C9.27963 11.5009 11.6543 9.43965 14.7156 9.29931C18.1817 9.14055 21.6573 9.15458 25.1286 9.15897C26.2585 9.15897 27.4148 9.24668 28.5123 9.50368C31.5027 10.1975 33.4998 12.5798 33.7153 15.6778C33.8624 17.775 33.8826 19.881 33.9588 21.9747ZM21.038 32.6335C23.0386 32.566 25.0393 32.5458 27.0329 32.4195C29.4022 32.2713 31.0131 30.8056 31.3853 28.4724C31.5316 27.49 31.5984 26.4974 31.585 25.5042C31.5754 22.3334 31.585 19.1608 31.4572 15.9935C31.352 13.4279 29.5836 11.6956 27.032 11.5334C23.0543 11.2812 19.0647 11.2812 15.087 11.5334C12.4969 11.6965 10.774 13.4183 10.6084 15.9988C10.3535 19.9965 10.3535 24.0064 10.6084 28.004C10.7713 30.5302 12.5109 32.259 15.0423 32.4195C17.0394 32.5467 19.0401 32.566 21.038 32.6335Z" fill="white"/>
<path d="M27.6132 21.9756C27.6143 23.2788 27.2291 24.5529 26.5064 25.6367C25.7838 26.7205 24.7562 27.5652 23.5538 28.0637C22.3514 28.5623 21.0283 28.6923 19.752 28.4372C18.4758 28.1822 17.3038 27.5537 16.3846 26.6312C15.4653 25.7088 14.8402 24.5339 14.5882 23.2553C14.3363 21.9768 14.469 20.6522 14.9694 19.4492C15.4698 18.2462 16.3155 17.219 17.3993 16.4977C18.4832 15.7763 19.7564 15.3933 21.0578 15.3971C21.9204 15.3954 22.7747 15.5645 23.5718 15.8946C24.3688 16.2248 25.0928 16.7095 25.702 17.3209C26.3113 17.9323 26.7938 18.6583 27.1218 19.4571C27.4498 20.256 27.6168 21.1119 27.6132 21.9756ZM25.3472 21.9896C25.3495 21.1362 25.099 20.3014 24.6273 19.5906C24.1557 18.8798 23.4842 18.325 22.6977 17.9964C21.9112 17.6677 21.0451 17.5801 20.2088 17.7444C19.3726 17.9087 18.6038 18.3177 17.9996 18.9196C17.3955 19.5215 16.9832 20.2893 16.8148 21.1258C16.6465 21.9624 16.7296 22.8302 17.0538 23.6194C17.3779 24.4086 17.9286 25.0839 18.636 25.5597C19.3434 26.0356 20.1758 26.2907 21.028 26.2928C21.5942 26.2957 22.1554 26.1865 22.6793 25.9715C23.2032 25.7566 23.6795 25.4401 24.0808 25.0402C24.4822 24.6403 24.8007 24.165 25.018 23.6414C25.2354 23.1179 25.3472 22.5566 25.3472 21.9896Z" fill="white"/>
<path d="M27.9159 16.6145C27.6157 16.6152 27.3221 16.5268 27.072 16.3605C26.822 16.1942 26.6268 15.9574 26.511 15.68C26.3953 15.4027 26.3642 15.0972 26.4217 14.8022C26.4792 14.5072 26.6227 14.2359 26.8341 14.0224C27.0455 13.809 27.3153 13.6632 27.6094 13.6032C27.9036 13.5432 28.2089 13.5719 28.4868 13.6856C28.7647 13.7992 29.0027 13.9928 29.1708 14.2418C29.3389 14.4909 29.4295 14.7842 29.4312 15.0848C29.4329 15.2851 29.3949 15.4837 29.3194 15.6693C29.244 15.8548 29.1326 16.0235 28.9918 16.1657C28.8509 16.3079 28.6833 16.4208 28.4986 16.4978C28.314 16.5749 28.1159 16.6145 27.9159 16.6145Z" fill="white"/>
</svg>
