<svg viewBox="0 0 76 78" fill="none" xmlns="http://www.w3.org/2000/svg">
<path d="M38 78C58.9868 78 76 60.5391 76 39C76 17.4609 58.9868 0 38 0C17.0132 0 0 17.4609 0 39C0 60.5391 17.0132 78 38 78Z" fill="white"/>
<path d="M61.388 38.7498C61.2495 42.5657 61.2192 46.3671 60.9518 50.1495C60.4918 56.6129 55.7468 61.4807 49.278 61.8027C43.0337 62.1214 36.7686 62.0641 30.5147 62.0545C28.4598 62.0545 26.3587 61.8951 24.3642 61.4376C18.938 60.1976 15.1529 55.8446 14.8982 50.2404C14.6133 43.9332 14.6403 37.6086 14.6403 31.2919C14.6403 29.2357 14.7995 27.1301 15.277 25.1362C16.5409 19.7168 20.8561 15.9711 26.4192 15.7161C32.7177 15.4276 39.0337 15.4531 45.3417 15.4611C47.395 15.4611 49.4961 15.6205 51.4906 16.0875C56.9247 17.3483 60.5539 21.6773 60.9455 27.3071C61.2129 31.1181 61.2495 34.9451 61.388 38.7498ZM37.9083 58.1191C41.5438 57.9964 45.1793 57.9597 48.8021 57.7302C53.1078 57.4608 56.035 54.7974 56.7114 50.5576C56.9773 48.7723 57.0986 46.9685 57.0744 45.1637C57.0569 39.4017 57.0744 33.6365 56.842 27.8809C56.651 23.2187 53.4372 20.0707 48.8005 19.7758C41.5723 19.3175 34.3223 19.3175 27.0941 19.7758C22.3873 20.0723 19.2564 23.2011 18.9555 27.8904C18.4923 35.155 18.4923 42.4418 18.9555 49.7064C19.2516 54.2969 22.4128 57.4385 27.0129 57.7302C30.642 57.9613 34.2776 57.9964 37.9083 58.1191Z" fill="#306372"/>
<path d="M49.8574 38.7513C49.8593 41.1195 49.1593 43.4349 47.8461 45.4044C46.5329 47.3738 44.6655 48.9088 42.4805 49.8147C40.2955 50.7207 37.8912 50.9569 35.572 50.4935C33.2528 50.0301 31.1231 48.8879 29.4527 47.2116C27.7822 45.5353 26.6462 43.4002 26.1884 41.0769C25.7305 38.7535 25.9716 36.3464 26.881 34.1603C27.7903 31.9743 29.3271 30.1076 31.2967 28.7968C33.2663 27.486 35.58 26.79 37.9449 26.7969C39.5123 26.7938 41.0649 27.101 42.5133 27.701C43.9617 28.3009 45.2773 29.1817 46.3844 30.2928C47.4916 31.4038 48.3684 32.7231 48.9644 34.1748C49.5605 35.6264 49.864 37.1818 49.8574 38.7513ZM45.7396 38.7768C45.7437 37.2261 45.2885 35.7089 44.4315 34.4172C43.5745 33.1256 42.3542 32.1174 40.925 31.5203C39.4957 30.9231 37.9218 30.7638 36.4021 31.0624C34.8825 31.361 33.4854 32.1042 32.3875 33.198C31.2897 34.2918 30.5404 35.687 30.2345 37.2072C29.9286 38.7274 30.0797 40.3043 30.6687 41.7385C31.2578 43.1727 32.2584 44.3997 33.5439 45.2645C34.8294 46.1292 36.3422 46.5928 37.8908 46.5966C38.9196 46.6018 39.9394 46.4034 40.8914 46.0128C41.8434 45.6222 42.709 45.047 43.4384 44.3204C44.1677 43.5937 44.7465 42.7299 45.1414 41.7785C45.5363 40.8272 45.7396 39.8071 45.7396 38.7768Z" fill="#306372"/>
<path d="M50.4066 29.0093C49.8611 29.0105 49.3275 28.8499 48.8731 28.5477C48.4187 28.2454 48.064 27.8152 47.8536 27.3112C47.6433 26.8072 47.5868 26.2521 47.6913 25.716C47.7958 25.1799 48.0566 24.6868 48.4408 24.299C48.8249 23.9112 49.3152 23.6461 49.8497 23.5371C50.3842 23.4282 50.939 23.4802 51.444 23.6868C51.949 23.8934 52.3815 24.2451 52.687 24.6977C52.9924 25.1502 53.1571 25.6833 53.1603 26.2295C53.1632 26.5935 53.0942 26.9544 52.9571 27.2916C52.82 27.6287 52.6177 27.9353 52.3617 28.1937C52.1057 28.4522 51.8011 28.6573 51.4656 28.7973C51.13 28.9372 50.7701 29.0093 50.4066 29.0093Z" fill="#306372"/>
</svg>
