<svg width="100" height="101" viewBox="0 0 100 101" fill="none" xmlns="http://www.w3.org/2000/svg">
<g clip-path="url(#clip0_581_170)">
<path d="M7.64278 0C35.8642 0 64.0857 0 92.3072 0C92.5031 0.0489956 92.6501 0.146987 92.8461 0.195982C96.9128 1.02891 99.9015 4.50759 99.9015 8.67222C99.9505 17.9324 99.9505 27.1925 99.9015 36.5017C99.9015 40.4704 97.1087 43.9 93.2381 44.831C92.0622 45.1249 90.7883 45.0759 89.5634 45.1249C88.9265 45.1249 88.5345 45.2719 88.1915 45.8109C86.7707 47.8687 85.3498 49.8775 83.8799 51.8863C82.4101 53.8951 80.2052 53.8951 78.6864 51.8863C77.2165 49.8775 75.7957 47.8687 74.3748 45.8109C74.0318 45.3209 73.6888 45.1249 73.1009 45.1739C68.1033 45.2229 63.1058 45.2229 58.1082 45.1739C57.5203 45.1739 57.1773 45.3699 56.8344 45.8599C55.4135 47.8687 53.9926 49.9265 52.5227 51.9353C51.0529 53.9931 48.7991 53.9931 47.3292 51.9353C45.8593 49.8775 44.4385 47.8197 42.9196 45.8109C42.7726 45.3699 42.2827 45.0759 41.8907 45.0759C36.8442 45.0269 31.7486 45.0269 26.7021 45.0759C26.3101 45.0759 25.8201 45.3209 25.6242 45.6639C24.1053 47.6727 22.6844 49.7305 21.2146 51.7883C19.7447 53.8461 17.4909 53.8461 16.021 51.7883C14.9431 50.3185 13.7672 48.8976 12.8853 47.3297C11.9054 45.5659 10.6805 44.9779 8.62269 44.9779C3.91912 45.0759 0.097461 41.1563 0.0484654 36.4527C-0.000530147 27.1926 -0.000530147 17.9324 0.0484654 8.67222C0.0484654 5.24253 1.76331 2.69476 4.75204 1.0779C5.63396 0.538951 6.66287 0.342969 7.64278 0ZM49.387 33.317C53.3067 33.317 56.5894 31.9451 58.8432 29.6423C60.0681 28.3684 60.1171 26.6046 58.9902 25.4287C57.8633 24.2528 56.0994 24.2038 54.7765 25.3797C51.5918 28.1725 48.4071 28.1725 45.2714 25.3797C43.9485 24.2038 42.1847 24.2038 41.0578 25.3797C39.8329 26.6046 39.9309 28.4174 41.2048 29.6913C43.6545 32.0921 46.5943 33.268 49.387 33.317ZM43.1156 19.5982C44.6835 19.5982 46.0553 18.2754 46.0553 16.7075C46.0553 15.1396 44.7814 13.7678 43.1646 13.7188C41.5477 13.6698 40.1759 15.0416 40.1759 16.6585C40.2248 18.2754 41.5477 19.5982 43.1156 19.5982ZM56.8344 19.5982C58.4022 19.5982 59.7741 18.2754 59.7741 16.7075C59.8231 15.1396 58.5002 13.7678 56.9323 13.7188C55.3155 13.6698 53.8946 15.0416 53.8946 16.6585C53.8946 18.2264 55.2175 19.5982 56.8344 19.5982Z" fill="#FF6F59"/>
<path d="M35.4727 100.245C35.4727 95.6884 35.2767 91.2298 35.5217 86.7712C35.7176 83.7824 37.6285 81.5776 40.2252 80.0588C40.7642 79.7158 41.1561 79.7158 41.6951 80.1078C46.7906 83.5865 53.1601 83.5865 58.2556 80.1078C58.7946 79.7158 59.1865 79.7158 59.7255 80.0588C62.6162 81.8226 64.4291 84.3704 64.576 87.7511C64.772 91.8667 64.625 96.0313 64.625 100.245C54.8749 100.245 45.1738 100.245 35.4727 100.245Z" fill="#0E657A"/>
<path d="M29.3975 100.343C28.5646 100.343 27.8786 100.343 27.1437 100.343C19.3044 100.343 11.4161 100.343 3.5768 100.343C1.17602 100.343 0.0491196 99.2162 0.0491196 96.8154C0.0491196 93.9736 0.00012398 91.1319 0.0491196 88.2902C0.147111 84.6645 1.91095 81.9207 4.99767 80.0589C5.48763 79.7649 5.87959 79.7159 6.41855 80.1079C11.5631 83.5866 17.8835 83.5866 23.028 80.1079C23.567 79.7649 23.91 79.7649 24.4489 80.0589C27.3397 81.7737 29.1525 84.2725 29.3485 87.6042C29.5445 91.7688 29.3975 95.9825 29.3975 100.343Z" fill="#0E657A"/>
<path d="M70.75 100.294C70.75 95.7375 70.554 91.2789 70.799 86.8203C70.995 83.7825 72.9548 81.5777 75.5516 80.0099C76.0415 79.7159 76.4335 79.7159 76.9724 80.0589C82.117 83.5376 88.4374 83.5376 93.5819 80.0589C94.1209 79.7159 94.4639 79.7159 95.0028 80.0099C98.0895 81.8717 99.8534 84.6155 99.9514 88.2411C100.049 91.2299 100 94.2676 99.9514 97.2563C99.9514 99.0202 98.7265 100.294 97.0116 100.294C88.2904 100.294 79.5692 100.294 70.897 100.294C70.848 100.294 70.75 100.294 70.75 100.294Z" fill="#0E657A"/>
<path d="M14.7474 59.1867C19.598 59.1867 23.5666 63.2044 23.5176 68.1039C23.5176 72.9055 19.5 76.8251 14.6984 76.8251C9.84783 76.8251 5.87919 72.8075 5.92818 67.9079C5.92818 63.0574 9.94582 59.1377 14.7474 59.1867Z" fill="#0E657A"/>
<path d="M49.9755 76.8252C45.1249 76.8252 41.1562 72.8075 41.1562 67.957C41.2052 63.1064 45.1249 59.1868 49.9755 59.1868C54.875 59.1868 58.7947 63.1554 58.7947 68.055C58.7947 72.9055 54.826 76.8252 49.9755 76.8252Z" fill="#0E657A"/>
<path d="M94.0701 67.957C94.0701 72.8565 90.1014 76.8252 85.2508 76.8252C80.4003 76.8252 76.4806 72.8565 76.4316 68.055C76.4316 63.1554 80.4003 59.1868 85.2508 59.1868C90.1014 59.1868 94.0701 63.1064 94.0701 67.957Z" fill="#0E657A"/>
</g>
<defs>
<clipPath id="clip0_581_170">
<rect width="100" height="100.343" fill="white"/>
</clipPath>
</defs>
</svg>
