<svg width="75" height="76" viewBox="0 0 75 76" fill="none" xmlns="http://www.w3.org/2000/svg">
<path d="M10.2696 72.5846C10.2696 66.1465 10.2696 59.8648 10.2696 53.531C13.5538 53.2704 16.4992 51.9932 19.4706 50.8724C22.6245 49.6734 25.8305 48.9175 29.245 49.3606C32.2164 49.7516 34.9532 50.8463 37.5858 52.2278C38.1592 52.5145 38.8369 52.6969 39.4625 52.723C42.7988 52.7751 46.1352 52.723 49.4715 52.7491C51.3482 52.7491 52.9642 53.9481 53.4855 55.6423C54.0329 57.3626 53.4334 59.3435 51.8956 60.2819C51.1397 60.751 50.1492 61.0117 49.263 61.0378C44.858 61.116 40.453 61.0638 36.048 61.0638C35.7873 61.0638 35.4485 60.9856 35.266 61.116C34.9272 61.3505 34.5362 61.6894 34.4841 62.0543C34.3798 62.5756 34.7969 62.9405 35.3442 62.9926C35.5527 63.0187 35.7613 62.9926 35.9958 62.9926C40.3487 62.9926 44.7016 62.9926 49.0545 62.9926C52.5211 62.9926 54.7367 61.2463 55.5707 57.9099C55.6229 57.6754 55.8314 57.3886 56.0399 57.2583C60.106 54.9125 64.1722 52.5666 68.2644 50.2468C70.5582 48.9696 73.686 50.0904 74.7546 52.4884C75.2499 53.5832 75.0153 54.2348 73.8684 54.9385C66.0229 59.8648 58.1773 64.7911 50.3577 69.6914C48.1161 71.0989 45.7963 72.3761 43.659 73.94C41.0785 75.8167 38.2896 76.2076 35.24 75.6863C30.4701 74.8522 25.6741 74.0182 20.8781 73.3405C17.9328 72.9234 14.9353 72.8192 11.9639 72.5585C11.4165 72.5325 10.8691 72.5846 10.2696 72.5846Z" fill="white"/>
<path d="M44.9361 6.09248C46.8128 3.22533 49.3411 1.2965 52.6253 0.436357C55.1536 -0.21527 57.6559 -0.137074 60.1321 0.670943C63.6769 1.81781 65.8924 4.84136 66.1531 8.75112C66.3877 12.1917 65.5536 15.4238 64.1461 18.5255C64.0418 18.7862 63.6508 19.0208 63.3641 19.0729C55.4403 20.3501 49.3672 24.4162 45.1707 31.2453C45.0925 31.3756 44.9882 31.5059 44.884 31.6363C44.1542 30.5937 43.5286 29.5511 42.7727 28.6127C38.6023 23.2954 33.1547 20.1155 26.482 19.0729C26.1693 19.0208 25.7522 18.7862 25.6219 18.5255C24.2144 15.3717 23.3542 12.1135 23.641 8.59473C24.0059 4.00728 27.1337 0.749142 31.7211 0.17571C37.2208 -0.501982 41.5477 1.40077 44.7015 5.93609C44.7797 5.96216 44.8319 5.98822 44.9361 6.09248Z" fill="#FF6F59"/>
<path d="M45.5357 34.9727C49.9929 23.9211 62.1131 19.0209 71.3662 21.2103C69.672 26.0324 66.7527 29.89 62.5562 32.7572C57.7603 36.0414 52.443 37.3186 46.6044 36.5627C48.0901 35.7025 49.5758 34.8424 51.0876 33.9822C52.2084 33.3306 53.3031 32.705 54.4239 32.0534C55.3883 31.506 55.6229 31.0629 55.2841 30.4634C54.9452 29.8639 54.4239 29.8379 53.4856 30.3592C50.8791 31.8709 48.2726 33.3827 45.5357 34.9727Z" fill="#FF6F59"/>
<path d="M18.428 21.2362C27.4205 19.0207 39.6971 23.7385 44.2325 34.8683C43.9718 34.738 43.7633 34.6598 43.5808 34.5555C41.1828 33.1741 38.7848 31.7926 36.3608 30.4112C36.2565 30.333 36.1262 30.2808 36.022 30.2026C35.3443 29.8377 34.7448 29.9159 34.5102 30.4633C34.2235 31.0888 34.4841 31.532 35.0575 31.8447C37.4816 33.2262 39.9057 34.6337 42.3297 36.0412C42.6164 36.1976 42.8771 36.354 43.1638 36.5365C40.6094 37.3184 34.5363 36.745 29.9488 34.373C24.3969 31.4798 20.5654 27.1009 18.428 21.2362Z" fill="#FF6F59"/>
<path d="M8.31477 63.1229C8.31477 66.9284 8.31477 70.76 8.31477 74.5655C8.31477 75.7123 8.10624 75.8948 6.95937 75.8948C5.05662 75.8948 3.17995 75.8948 1.2772 75.8948C0.208535 75.8948 0 75.6602 0 74.6437C0 66.8763 0 59.1089 0 51.3415C0 50.3771 0.234578 50.1425 1.17292 50.1425C3.17993 50.1425 5.18695 50.1425 7.1679 50.1425C8.10624 50.1425 8.34082 50.4032 8.34082 51.3415C8.31475 55.2773 8.31477 59.2132 8.31477 63.1229Z" fill="white"/>
<path d="M45.8485 41.4888C45.8485 42.3229 45.8485 43.1309 45.8485 43.965C45.8485 44.5905 45.5618 45.0076 44.9102 45.0076C44.2585 45.0076 43.9457 44.5905 43.9457 43.965C43.9197 42.3229 43.9457 40.6808 43.9197 39.0126C43.9197 38.2046 44.5452 38.4392 44.9623 38.4131C45.3793 38.387 45.9006 38.3349 45.8485 39.0647C45.8224 39.8988 45.8485 40.6808 45.8485 41.4888Z" fill="#FF6F59"/>
</svg>
