<svg width="100" height="96" viewBox="0 0 100 96" fill="none" xmlns="http://www.w3.org/2000/svg">
<g clip-path="url(#clip0_581_156)">
<path d="M0 66.9651C1.81818 65.116 3.63636 63.267 5.45455 61.418C6.9697 59.8688 8.53535 58.3696 10.202 56.6704C11.2121 57.7199 12.1212 58.7194 13.1313 59.6689C17.7273 64.0666 24.8485 64.2165 29.6465 60.0187C31.3131 58.5694 32.4748 56.7204 33.1818 54.6715C33.3333 54.3217 33.7374 53.8719 34.0909 53.722C38.0303 52.3227 40.7071 49.7241 42.0707 45.8261C42.2222 45.5262 42.6768 45.0765 43.0303 44.9765C46.9697 43.6272 49.596 41.0286 50.9596 37.1306C51.1616 36.5809 51.3636 36.331 51.9697 36.1311C60.6061 33.3826 63.2828 22.8381 57.0202 16.2915C56.0606 15.292 55.0505 14.4424 53.7879 13.2431C54.697 12.4934 55.4545 11.8438 56.1616 11.1441C57.3232 10.0447 58.4343 8.84534 59.6465 7.74592C62.5253 5.04732 66.5657 4.54758 69.899 6.49657C73.2323 8.44555 74.7475 12.1936 73.7374 15.9916C73.6869 16.2415 73.5859 16.4914 73.5354 16.6913C78.4343 19.19 79.5455 23.5877 78.2323 27.6356C80.2525 28.5851 81.8687 30.0343 82.7778 32.1332C83.6869 34.2321 83.6364 36.331 82.9293 38.38C83.8889 39.0796 84.899 39.6293 85.6566 40.4289C89.0404 43.7272 88.9899 48.9245 85.5051 52.3727C81.7677 56.1207 77.9798 59.8188 74.2424 63.5169C71.5152 66.2155 68.7879 68.8641 66.1111 71.6127C62.3232 75.4107 57.7778 77.2597 52.4242 77.2097C50.9091 77.2097 49.1919 76.8599 47.8788 77.4096C46.6162 77.9094 45.7071 79.3586 44.6465 80.4081C39.8485 85.1056 35.101 89.8532 30.3535 94.5507C28.5859 96.2998 27.0707 96.2998 25.303 94.5507C17.2222 86.5549 9.19192 78.609 1.11111 70.6132C0.757576 70.3633 0.40404 69.9135 0 69.5137C0 68.6642 0 67.8146 0 66.9651Z" fill="#0E657A"/>
<path d="M44.4955 29.7345C46.1117 32.633 46.1117 35.2316 44.041 37.6304C42.0713 39.8792 39.8491 40.1291 35.7581 38.7298C37.3743 41.8282 37.1723 44.6767 34.4955 47.0755C32.4753 48.8246 29.8491 48.9245 26.7682 47.3753C26.9703 47.7751 27.0713 48.025 27.2228 48.2748C28.5864 50.9734 27.8289 54.1718 25.4046 56.0208C22.9804 57.8199 19.647 57.7199 17.4248 55.671C15.7076 54.0718 14.041 52.4227 12.4248 50.7735C10.2531 48.5747 10.0006 45.3264 11.7682 42.8776C13.5359 40.4289 16.6167 39.5794 19.4955 40.7787C19.6975 40.8787 19.8996 40.9287 20.1016 41.0286C20.2026 40.9287 20.2531 40.8287 20.3541 40.7787C19.647 40.1291 18.8895 39.5794 18.2329 38.9297C16.4652 37.0807 15.9097 34.8818 16.7682 32.4831C17.6268 30.0343 19.445 28.6351 22.0713 28.3352C23.0309 28.2353 24.041 28.5851 25.0511 28.735C25.2531 28.785 25.5056 28.9349 25.7581 29.0349C25.8087 28.9349 25.9097 28.8849 25.9602 28.785C25.3541 28.2353 24.6975 27.7355 24.0915 27.1358C21.8188 24.837 21.4652 21.6387 23.2329 19.09C25.0006 16.5913 28.1319 15.7418 31.1117 16.9911C31.3137 17.0911 31.4652 17.1411 31.9198 17.291C30.5561 15.9916 29.6975 14.6923 29.4955 12.9932C29.243 10.2446 30.6066 7.84589 33.0309 6.64652C35.4046 5.49711 38.1824 5.94688 40.1521 7.84589C43.6874 11.2941 47.1723 14.7923 50.6571 18.2405C51.3137 18.8901 52.0208 19.5398 52.6773 20.2394C54.9501 22.5882 55.2026 25.9365 53.2834 28.4352C51.3642 30.9339 48.0309 31.5835 45.1521 30.0843C45.0006 29.9844 44.8491 29.9344 44.4955 29.7345Z" fill="#FF6F59"/>
<path d="M57.373 82.7569C62.6761 81.7574 66.9185 79.2587 70.6054 75.6106C76.6155 69.5638 82.7266 63.6169 88.7872 57.62C89.0397 57.3701 89.1912 57.0203 89.4438 56.7205C89.7468 56.9703 89.8983 57.0703 89.9993 57.1702C92.9791 60.1187 95.9589 63.0672 98.9387 66.0156C100.403 67.4649 100.353 69.114 98.9387 70.5133C90.7064 78.659 82.4741 86.8048 74.2417 94.9505C72.7266 96.4498 71.1104 96.4498 69.5953 95.0005C65.7064 91.1525 61.868 87.3545 57.9791 83.5065C57.8276 83.2566 57.6761 83.0567 57.373 82.7569Z" fill="#FF6F59"/>
<path d="M56.6165 2.24883C54.3437 4.64758 52.172 6.89641 50.1013 9.09527C48.2326 7.2962 46.4649 5.59709 44.6973 3.79802C45.0003 3.6481 45.4548 3.39823 45.9094 3.19834C47.6771 2.2988 49.4447 1.44925 51.2124 0.549715C53.0306 -0.349816 54.0407 -0.199894 55.5053 1.24935C55.9094 1.64914 56.3639 2.04893 56.6165 2.24883Z" fill="#FF6F59"/>
</g>
<defs>
<clipPath id="clip0_581_156">
<rect width="100" height="96" fill="white"/>
</clipPath>
</defs>
</svg>
