<svg width="75" height="76" viewBox="0 0 75 76" fill="none" xmlns="http://www.w3.org/2000/svg">
<path d="M41.8765 74.9589C40.5276 74.6291 39.2086 74.2394 38.0995 73.3402C36.0612 71.7514 34.8921 69.6831 34.8621 67.0752C34.8321 61.6495 34.8321 56.2538 34.8621 50.8282C34.8621 50.3186 34.7122 49.9589 34.3525 49.6291C32.4341 47.7407 30.5755 45.8222 28.6571 43.9637C27.9077 43.2143 27.5779 42.4049 27.9676 41.3857C28.3273 40.4265 29.0767 39.9769 30.3058 39.9769C42.446 39.9769 54.5863 39.9769 66.7266 39.9769C70.9233 39.9769 74.0707 42.6447 74.8801 46.7215C74.9101 46.8114 74.97 46.9013 75 46.9613C75 53.9457 75 60.9001 75 67.8845C74.9401 68.0344 74.8801 68.1843 74.8501 68.3642C74.1607 71.4817 72.3022 73.52 69.3046 74.5692C68.8849 74.7191 68.4353 74.809 67.9856 74.9289C59.2326 74.9589 50.5396 74.9589 41.8765 74.9589ZM54.8861 65.5464C58.4233 65.4265 61.3309 64.0776 63.5192 61.3198C64.3885 60.2107 64.2686 58.8618 63.2494 58.0824C62.2602 57.333 60.9413 57.5428 60.0719 58.592C57.2542 61.9793 52.458 62.0092 49.6403 58.622C48.741 57.5428 47.3921 57.303 46.4329 58.1123C45.4436 58.9217 45.3237 60.2706 46.223 61.3498C48.4712 64.1076 51.3789 65.4565 54.8861 65.5464ZM59.5923 54.9349C60.7914 54.9349 61.7806 53.9457 61.7506 52.7167C61.7506 51.5176 60.7314 50.5284 59.5324 50.5584C58.3333 50.5884 57.3441 51.5776 57.3741 52.7766C57.4041 53.9757 58.3933 54.9649 59.5923 54.9349ZM47.9916 52.7467C47.9916 53.9457 48.9508 54.9349 50.1499 54.9349C51.3489 54.9349 52.3681 53.9757 52.3681 52.7766C52.3681 51.5776 51.3789 50.5884 50.1799 50.5884C48.9808 50.5584 47.9916 51.5476 47.9916 52.7467Z" fill="#FF6F59"/>
<path d="M74.9401 33.382C74.3406 34.641 73.3214 35.0008 71.9725 35.0008C64.5684 34.9708 57.1343 34.9708 49.7303 34.9708C47.7518 34.9708 46.8825 34.0115 47.0624 32.0331C47.6319 24.8089 52.578 19.713 60.1319 18.8137C57.3142 18.394 55.1259 17.195 53.5072 15.0667C51.8885 12.9084 51.289 10.4804 51.7387 7.81251C52.548 3.04632 56.8046 -0.281023 61.6307 0.0187375C66.247 0.288522 70.084 4.12545 70.3837 8.80171C70.6535 13.0883 67.8657 17.8844 62.3502 18.7537C63.6092 19.1135 65.1679 19.3833 66.5768 20.0127C71.283 22.141 74.0408 25.7981 74.8502 30.924C74.8801 31.0739 74.9401 31.1938 74.9701 31.3437C74.9401 32.0331 74.9401 32.6926 74.9401 33.382Z" fill="white"/>
<path d="M1.61867 74.9589C0.0599214 74.2695 -0.119935 72.9805 0.0599213 71.5117C0.869274 64.6771 5.69541 59.7611 12.5299 58.8918C12.6498 58.8618 12.7698 58.8618 12.8297 58.8618C11.9304 58.592 10.9412 58.3822 10.0719 57.9625C9.14265 57.5129 8.24337 56.9133 7.49397 56.1939C6.77455 55.5045 6.11508 54.6651 5.66544 53.7659C5.18582 52.8666 4.85608 51.8174 4.7062 50.7982C4.55632 49.809 4.5863 48.7599 4.73618 47.7407C5.45561 43.1843 9.8321 39.7371 14.4784 40.0368C19.3345 40.3366 23.1115 44.2035 23.3513 49.1495C23.5911 53.8858 20.024 58.0224 15.2578 58.7718C16.5467 59.1615 18.1055 59.4013 19.5144 60.0608C24.7901 62.4889 27.5479 66.7155 27.9076 72.5009C27.9976 73.7599 27.3381 74.5392 26.199 75.0189C18.0156 74.9589 9.80213 74.9589 1.61867 74.9589Z" fill="white"/>
<path d="M26.3189 0.0186768C32.494 0.0186768 38.6691 0.0186768 44.8141 0.0186768C46.3429 0.0186768 47.3921 1.09781 47.1223 2.53666C47.0324 3.04625 46.7026 3.58583 46.313 3.94554C44.4245 5.89398 42.506 7.78246 40.5875 9.70093C40.2578 10.0307 40.1079 10.3604 40.1079 10.84C40.1079 16.1758 40.1379 21.5115 40.1079 26.8472C40.0779 30.7141 37.5899 33.8616 33.8429 34.7309C33.1535 34.8808 32.4341 34.9407 31.7446 34.9407C23.9808 34.9707 16.187 34.9707 8.42326 34.9407C3.47722 34.9707 0 31.4935 0 26.5475C0 20.4923 0 14.4671 0 8.41196C0 3.49589 3.47722 0.0186768 8.36331 0.0186768C14.3585 0.0186768 20.3237 0.0186768 26.3189 0.0186768ZM19.8741 25.5882C23.3813 25.5882 26.4389 24.2093 28.777 21.3017C29.5863 20.2825 29.4365 18.9335 28.5072 18.1542C27.548 17.3748 26.199 17.5546 25.3297 18.6038C22.452 22.0511 17.7158 22.081 14.8681 18.6638C13.9688 17.5846 12.6199 17.3748 11.6607 18.1841C10.6715 18.9935 10.5815 20.3124 11.4808 21.4215C13.5791 23.9995 16.3369 25.3784 19.8741 25.5882ZM15.3477 14.9767C16.5767 14.9767 17.5659 14.0475 17.5659 12.8184C17.5959 11.6494 16.5767 10.6002 15.4077 10.6002C14.2386 10.5702 13.2194 11.5894 13.1894 12.7585C13.1595 13.9575 14.1187 14.9467 15.3477 14.9767ZM24.7902 14.9767C26.0192 14.9767 26.9484 13.9875 26.9484 12.7885C26.9484 11.5894 25.9293 10.6002 24.7602 10.6002C23.5911 10.6302 22.5719 11.6494 22.5719 12.8184C22.5719 14.0175 23.5911 14.9767 24.7902 14.9767Z" fill="#FF6F59"/>
</svg>
