<svg id="Layer_1" data-name="Layer 1" xmlns="http://www.w3.org/2000/svg" viewBox="0 0 1540.13 399.76"><defs><style>.cls-1{fill:#30abe1;}.cls-2{fill:#9d9d9c;}.cls-3{fill:#cbbb9f;}</style></defs><path d="M1281.72,341.64c1.31-2,3.33-3.07,5.1-4.19a2.34,2.34,0,0,1,1.77,1.23c8.82,12.62,28.6,13.91,38.85,8.69,7.32-3.73,11.45-9.5,11.92-17.66.27-4.73.05-9.48.05-14.27A3.19,3.19,0,0,0,1337,317c-12.45,14.72-37.34,16.64-51.44-4.77-9.46-14.37-8-34.47,3.14-47.55s31.68-15.79,44.86-3.07c2.13,2.05,4.37,4,6.67,6.08.62-3.07.17-6.23.29-9.35.14-3.79.11-3.81,4-3.82,1.31,0,2.66-.25,4,.52,1.1,1.19.62,2.77.63,4.19,0,22.48-.13,45,.07,67.43.14,16.05-10.43,27.59-26.06,30.47a55.29,55.29,0,0,1-19.83-.05A32.08,32.08,0,0,1,1281.72,341.64Zm57.83-50.36a67.7,67.7,0,0,1,0-7c.46-4.49-1.33-8.13-4.07-11.39a36.46,36.46,0,0,0-5.3-5.24c-12.29-9.67-28.62-6.72-36.42,6.83-6.09,10.56-6.52,21.51-.27,32.24,8,13.76,27.61,19.84,42,3.45a15,15,0,0,0,4.07-11.43C1339.39,296.29,1339.55,293.78,1339.55,291.28Z"/><path d="M995.52,100.8c.81-3.92,0-8.06.54-12.35a23.15,23.15,0,0,1,7.72-.17c1.17,1.32.75,2.72.75,4q0,34.49,0,69a28.1,28.1,0,0,1-18.54,27,47.67,47.67,0,0,1-30.37,1.31c-8.23-2.22-14.18-7.52-18.88-14.71l5.28-4.23c1.7.33,2.2,1.72,3,2.71,9.55,11.82,28.89,12.41,38.92,6.82,6.08-3.39,9.92-8.52,10.62-15.41.53-5.25.11-10.59.11-15.81-1-.46-1.33.23-1.7.69a31.25,31.25,0,0,1-45.31,3.78c-17.66-15.3-17-45.31,1.21-60C959.36,85,978.12,83.89,989.17,95,991.14,97,993.31,98.8,995.52,100.8ZM994.88,125a65,65,0,0,1,0-7c.55-5-1.54-9-4.66-12.68a28.73,28.73,0,0,0-13-8.85,21.77,21.77,0,0,0-21.17,3.56c-15,11.44-15.42,35.75-.63,47.48,13.88,11,29.78,4.87,37.23-6.53a12.5,12.5,0,0,0,2.22-7.52C994.78,130.67,994.88,127.83,994.88,125Z"/><path d="M1338.35,160c-2.64.63-5.43.27-8.18.19-1.16-3.69-1.63-55.4-.65-71.52,2.62-1.09,5.34-.52,8.57-.31v13.53c2-.46,2.34-2,3.15-3,6.52-7.91,14.61-12.36,25.13-12,9.83.34,16.32,4.88,19.56,14.12.27.78.43,1.6.64,2.4,1.6.18,1.88-1.21,2.47-2a40,40,0,0,1,8-8.82c7.21-5.69,15.5-6.7,24.12-5,5.12,1,8.85,4.42,11.34,9.08a35.18,35.18,0,0,1,3.69,13.39,146.52,146.52,0,0,1,.63,15c-.06,10,0,20,0,30,0,1.62.45,3.33-.68,5-2.7.58-5.48.19-8,.25-1.45-1.54-1-3.12-1-4.56q-.06-17.25,0-34.49a55.24,55.24,0,0,0-1.23-12.9c-2.58-10.82-11.3-15.39-21.74-11.46a26.05,26.05,0,0,0-16.34,23.54c0,11.5,0,23,0,34.5,0,1.64.28,3.33-.62,5-2.75.81-5.52.28-8,.37-1.47-1.58-1-3.16-1-4.6q-.06-17.24,0-34.49a65.35,65.35,0,0,0-1-11.93c-2.3-12.55-11.45-15.74-21.43-12.57-9.32,3-16.74,13.39-16.76,23.21,0,11.67,0,23.33,0,35C1339,156.49,1339.39,158.2,1338.35,160Z"/><path d="M781.87,160c-3.51.29-6.28.58-9.64-.29q0-31.63,0-63.38c-3.11-1.73-6.49,0-9.38-1.38-.9-2.13-.63-4.23-.36-6.47,3.06-1,6.12,0,9.4-.78.32-2.86.54-5.8,1-8.7,1.17-7.77,4.19-14.63,11.58-18.2,10.15-4.91,20.34-4.45,29.91,1.72,4.6,3,6.75,7.71,7.43,13A51.94,51.94,0,0,1,822,82.1q0,29.75,0,59.49a14.74,14.74,0,0,0,1.2,6.81,6.52,6.52,0,0,0,6.32,4,31.36,31.36,0,0,0,7.7-1.15c1.88,2.29,1.25,5,2.74,7.42-6.69,2.56-13,3.62-19.39,1.43-4.78-1.64-7.48-5.37-7.9-10.54-.1-1.32,0-2.66,0-4q0-30.5,0-61a32.5,32.5,0,0,0-.81-7.94,13.51,13.51,0,0,0-11.52-10.34c-6.43-1-12,1.45-15,6.59-2.27,3.83-3.37,8.75-3.21,14.69,4.64,1.13,9.48-.06,14.41.73.87,2.23.61,4.42.09,7l-14.75.45Z"/><path d="M690.07,291.58V327a40.47,40.47,0,0,1-9.17,0c-1.09-1.75-.64-3.46-.64-5.08q0-43.94,0-87.89c0-.67,0-1.33,0-2,.13-3.24.19-3.42,3.41-3.44,9.48-.06,19,0,28.44,0,2.32,0,4.66.09,7,0,15.44-.73,26.89,10.21,30.44,23.82A32.25,32.25,0,0,1,735.64,287a27.28,27.28,0,0,1-14.74,3.87c-8.48,0-17,0-25.44,0C693.84,290.92,692.16,290.65,690.07,291.58Zm.59-54.28c-1,6.57-.78,41.22.32,44.74,10.39,0,20.85.14,31.31-.06a16.14,16.14,0,0,0,12.81-6.73c5.95-7.78,7.18-16.39,3.34-25.37-3.17-7.4-8.85-12.21-17.14-12.5C711.19,237,701.05,237.3,690.66,237.3Z"/><path d="M1060.08,226.35c8.78-1.58,8.78-1.58,8.79,6.87,0,9.83,0,19.66,0,29.49,0,1.64-.29,3.32.32,5,1.58.36,1.86-1.09,2.54-1.87,4.78-5.52,10.24-10.05,17.59-11.59,12.61-2.64,23,1.2,31.05,11.18,10.89,13.5,11.53,34.45,1.61,48.55-11.66,16.57-33.47,19.39-48.41,6.22-1.71-1.51-3.33-3.12-5.25-4.92-1.06,3.75.13,7.61-.76,11.39-2.41.92-4.85.5-7.13.39-.28-.27-.41-.38-.52-.5s-.24-.27-.24-.41q-.12-47.46-.2-94.94c0-1.33,0-2.66.14-4C1059.64,226.9,1059.92,226.63,1060.08,226.35Zm34,35.68c-12.2-.48-21.57,10-24.7,17.46a9.3,9.3,0,0,0-.48,3.42c-.05,5.67,0,11.33,0,17a14.29,14.29,0,0,0,2.26,8.06c6.26,9.44,21.76,17.45,35.86,7.34,11.2-8,15.45-23.54,9.79-36.63C1112.49,268.72,1105.24,262.62,1094.07,262Z"/><path d="M680.62,62.47c1.84-.82,3.52-.5,5.16-.5,11.32,0,22.65.38,34-.11C734.09,61.23,746,72,749.42,85.32c3.63,14-2.95,29.76-15.73,36.06a25.51,25.51,0,0,1-11.53,2.7c-9.49,0-19,0-28.46,0-1,0-2,.12-3.14.19-.93,4-.36,8-.46,11.91s0,7.67,0,11.5v12.07c-3.27.93-6.2.53-9.09.35C680.05,156.46,679.72,70.83,680.62,62.47Zm9.88,8.65c-.88,6.7-.6,40.45.43,44.08,10.72,0,21.52.09,32.31,0,3.6-.05,6.73-1.73,9.44-4.08a22.73,22.73,0,0,0,6.3-9.44c5.4-14.29-3.67-32.38-21.75-31.2-7.12.47-14.3.06-21.45.1C694.14,70.54,692.45,70.2,690.5,71.12Z"/><path d="M1096.47,127.9h-61.2c-.9,8.8,7.14,21.8,18.27,25.26s22.45-.65,30-11.47a24.66,24.66,0,0,1,7.59,2c.12,2.05-1.14,3.46-2.17,4.86-5.08,6.9-12.07,10.87-20.35,12.49-28.27,5.53-47.46-19.13-43.51-43.17,2.65-16.09,13.73-27.77,28.47-30.35,26.42-4.61,41.53,14.89,42.86,33.6C1096.6,123.07,1096.47,125.06,1096.47,127.9Zm-9.36-8c-1.64-15.63-13.51-26.45-27.65-25.64-13.61.78-24.75,12.37-24.36,25.64Z"/><path d="M907.94,141.53c2.71.65,5.33.9,7.8,2.46a22.65,22.65,0,0,1-9,11.12c-21.53,14.84-51.76,4.48-57-23.79-2.61-14.14,1.36-26.44,12.22-36.07,16.85-14.94,49.28-11.11,57.64,18.41a30.82,30.82,0,0,1,.82,14.19H859.64c-.09,11.32,7.84,21.92,18.64,25.38S900.66,152.31,907.94,141.53Zm-48.81-22c.6.3.89.56,1.18.57q24.2.08,48.38.09a13.27,13.27,0,0,0,2-.19c.14,0,.26-.19.39-.29l.34-.31c-.27-11.61-10.55-24.87-25.64-25.15C872.41,94,860.34,104,859.13,119.56Z"/><path d="M1169.1,128.35c1.09,12.56,9,22.36,20.26,25.28a25.69,25.69,0,0,0,28.15-11.89,19.65,19.65,0,0,1,8,2.17,22,22,0,0,1-8.63,10.91c-21.25,15.09-51.82,5.25-57.28-23-2.87-14.9,1.36-27.82,13.34-37.51,17-13.7,47.93-9.54,56.34,19a37.26,37.26,0,0,1,1.34,10.87c0,3.32-.27,3.53-3.77,3.67-1,0-2,0-3,0q-24.72,0-49.43,0C1172.74,127.87,1171.06,127.55,1169.1,128.35Zm0-8.66c5.23.93,48.54.75,52-.22-.56-13.32-12.12-25.47-26.54-25.19C1179.13,94.58,1168.85,107.69,1169.09,119.69Z"/><path d="M1215.69,294.29h-60.53c-1.62,8.36,5.63,19.87,15.08,24.37,11.49,5.46,22.65,2,33.27-10.39,2.39.74,5.09.82,7.53,2.39-2.35,6-6.71,10-12,13-18,10.06-43,4.83-52.12-18.4-6.13-15.59-2-33,10.24-43.28,10.55-8.87,22.71-11,35.55-6.32s20,14.43,22.67,27.62A24.94,24.94,0,0,1,1215.69,294.29Zm-9.34-7.67c.09-14.69-13-26.4-28.13-25.49-14.66.88-24.83,15.47-23.35,25.51C1159.19,287.28,1201.34,287.31,1206.35,286.62Z"/><path d="M979.09,294.89c.84,12.95,9.61,23.58,21.8,25.73,9.54,1.68,18-1.12,24.07-8.77,3.63-4.58,2.73-3.41,7.74-2.42a4,4,0,0,1,2.76,1.5c-2.51,6-7.08,10.32-12.81,13.21-22.93,11.59-48.35-.84-53.11-25.66C967,285,970.26,273,980.23,263.27c16.5-16.07,43.87-12.08,55.29,7.91a38.5,38.5,0,0,1,5.1,19.08c0,3.92,0,4-3.79,4-4.83.05-9.66,0-14.48,0q-19.47,0-38.94,0C982,294.31,980.41,293.86,979.09,294.89Zm52-8.48c-1-15.09-12.91-25.93-27.75-25.31-13.29.56-24.58,12.42-24.23,25.44C983.86,287.44,1027.48,287.33,1031.1,286.41Z"/><path d="M1308.23,159.91c-8.24,2.27-10.45.37-12.33-10.19a6.06,6.06,0,0,0-1.24.82c-6.54,7.15-14.9,10.47-24.31,11.21-10.52.82-20-3.69-24.55-12.82a19.57,19.57,0,0,1,7.31-26.13c8-5,16.78-6.1,25.91-5.25a58.84,58.84,0,0,1,12.73,2.33,3.46,3.46,0,0,0,3.1.05,25.94,25.94,0,0,0-1.68-15c-3.07-6.84-8.63-10.27-16.07-10.82-7.63-.56-14.4,1.93-20.86,5.62-1.42.81-2.82,1.65-4.26,2.5-1.88-1.61-2.28-3.81-3.75-5.88,6.82-4.86,13.94-8.21,22-9.18a40,40,0,0,1,14.38.58c11.58,2.85,19,11.46,19.73,23.38.39,6.63.21,13.31.25,20,0,5.16,0,10.32,0,15.48,0,2,0,4.08,2.34,5.06a2.29,2.29,0,0,1,1.29,2.45C1308.22,156.11,1308.23,158.08,1308.23,159.91Zm-13-25.12c0-1.64,0-2.47,0-3.3,0-4.26,0-4.24-4-5.5a53.24,53.24,0,0,0-16.71-2.46,29,29,0,0,0-13.5,3.06c-3.61,1.93-6.6,4.45-7.67,8.7a15,15,0,0,0,9.58,17.62c8.24,3,16.14,1.35,23.43-3C1292.16,146.39,1296.37,141.62,1295.18,134.79Z"/><path d="M897.73,326.88a33.26,33.26,0,0,1-8.33.16c-.95-3.65-1.26-64.92-.41-71.9.28-.17.56-.47.85-.49,9.42-.42,7.38-.36,7.58,7.13.06,2.31,0,4.61,0,7.1,2.09-.58,2.5-2.18,3.47-3.21,8.54-9.06,18.82-13.51,31.34-11.79,7.31,1,11.89,5.49,14.48,12.23a46.66,46.66,0,0,1,2.72,16.18c.2,14.17.09,28.34.09,42.5a2.4,2.4,0,0,1-.91,2.21,32.94,32.94,0,0,1-8.23-.06c-.91-1.87-.55-3.56-.56-5.18-.07-13-.1-26-.16-39A32.43,32.43,0,0,0,937.83,272c-2.41-6.83-7.27-10.05-14.53-9.72-9.95.44-21,8.8-24.29,18.26a16.4,16.4,0,0,0-.59,5.43q0,17.76,0,35.5C898.4,323.25,898.77,325.12,897.73,326.88Z"/><path d="M804,254.68c2.74-.16,5.16-.46,7.72.29.74,4.85,0,9.67.49,15,1.47-1.73,2.56-3.14,3.78-4.45,8.64-9.28,19.15-13.49,31.83-11.49,5.84.92,9.95,4.35,12.62,9.55a32.66,32.66,0,0,1,3.28,12,146.13,146.13,0,0,1,.71,14.95c-.09,10.32,0,20.65,0,31,0,1.79.37,3.66-.66,5.42a29,29,0,0,1-8.2.11c-1.25-1.56-.78-3.12-.79-4.55q-.06-17.25,0-34.48a63,63,0,0,0-1.07-12.41c-2.15-10.86-9.47-15.38-20.19-12.47-8.73,2.37-14.77,8-18.94,15.84a15.9,15.9,0,0,0-1.55,7.73c.06,11.66,0,23.32,0,35,0,1.64.31,3.32-.46,5.16-2.62.79-5.39.32-8.09.29C803.47,323.4,803.1,263.85,804,254.68Z"/><path d="M1146.77,149.35c1.35,2.32,1.82,4.75,2.69,7.4-6.46,3.48-13.08,5.29-20.22,4.1s-11.23-6.13-11.52-13.55c0-1.17,0-2.33,0-3.5V96.32c-3.13-1.64-6.46,0-9.44-1.25-1-2.09-.34-4.2-.51-6.49,3.28-1.07,6.52,0,9.9-1V64.56c.71-.48,1-.79,1.25-.82,8.51-1,8.51-1,8.51,7.6V87.83h15.89c1.22,2.72.87,4.93.37,7.29-5.3,1.16-10.68-.41-15.91,1a14.37,14.37,0,0,0-.32,2.1c0,15.15-.08,30.3,0,45.46,0,5.66,3.13,8.52,8.74,8.62a17.25,17.25,0,0,0,6.81-1.32C1144.23,150.45,1145.44,149.92,1146.77,149.35Z"/><path d="M1243.84,327c-3,.17-5.74.43-8.4-.15-1.07-1.5-.74-3.05-.74-4.51q0-31.47,0-62.93c0-.67,0-1.33,0-2-.15-2.14.84-2.94,3-2.94,7.49,0,6.4-.17,6.45,5.93,0,3,0,5.95,0,10l3.14-4.26c4.76-6.43,11-10.6,19-11.78,4.41-.64,5-.1,5,4.23,0,1.3.29,2.66-.49,4.21-2.06.4-4.33.72-6.55,1.29-8,2-14.1,6.43-17.9,13.91a16.11,16.11,0,0,0-1.8,7.65c.09,12,0,24,0,36C1244.46,323.3,1244.81,325,1243.84,327Z"/><path d="M769.1,254.9a26,26,0,0,1,8.74-.12c1,3.59,1.39,63.25.44,72-2.8.77-5.72.34-8.52.24-.24-.26-.37-.37-.47-.51s-.25-.26-.25-.4q-.1-33.92-.19-67.85C768.85,257.29,769,256.31,769.1,254.9Z"/><path d="M1459.28,118.71c5.24-.78,36.18-.71,40.21,0,.89,1.14.49,2.52.52,3.8s-.12,2.59-.18,3.59a2.36,2.36,0,0,1-2,.91c-11.59,0-23.19,0-34.79,0-3.56,0-3.61-.13-3.71-3.6C1459.25,121.93,1459.28,120.46,1459.28,118.71Z"/><path d="M1423.34,300.78c5.68-3.67,7.29-3.62,12.18.2a28.61,28.61,0,0,1,3.56-2.25c4-1.77,7.74-.13,9.24,4a11.23,11.23,0,0,1,.68,3.39c.09,3.32.06,6.64,0,10,0,1.31.18,2.81-1.82,2.88-2.33.09-2.08-1.62-2.1-3.09,0-2.5,0-5,0-7.48a16.65,16.65,0,0,0-.23-3.47c-.42-1.89-1.41-3.45-3.58-3.57a4.41,4.41,0,0,0-4.32,2.79,10.31,10.31,0,0,0-.7,4.88c0,2.82,0,5.65-.08,8.47a1.44,1.44,0,0,1-1.63,1.47c-.91,0-1.7-.34-1.85-1.29a26.71,26.71,0,0,1-.2-3.47c-.07-3,0-6-.22-9a4,4,0,0,0-3.77-3.93,4.91,4.91,0,0,0-4.35,3.51,18,18,0,0,0-.39,3.95c-.06,2.5,0,5,0,7.48,0,1.43-.25,2.76-2.11,2.7-1.68-.05-1.63-1.35-1.63-2.52,0-5.32,0-10.64,0-15.95,0-.85,0-1.74,1-2C1422.49,298.13,1423.26,298.85,1423.34,300.78Z"/><path d="M1482.71,302.05h12.68c1.12-3.19.29-6.52.6-9.76.08-.91.44-1.61,1.44-1.71a1.9,1.9,0,0,1,2.32,1.34,1.63,1.63,0,0,1,.09.48q0,12.23,0,24.45a2.76,2.76,0,0,1-.2,1,1.85,1.85,0,0,1-2,1.12,1.51,1.51,0,0,1-1.62-1.52c-.08-2.82,0-5.65-.09-8.47-.09-3.19-.21-3.31-3.46-3.4-2.49-.07-5,0-7.47,0a9.73,9.73,0,0,0-1.65.33c-1.16,2.12-.4,4.49-.59,6.73-.14,1.65,0,3.32-.22,5-.09.93-.84,1.34-1.78,1.35a1.56,1.56,0,0,1-1.8-1.32,15.73,15.73,0,0,1-.13-2.48q0-10.47,0-20.95c0-.5,0-1,0-1.5,0-1.08.32-2,1.58-2.12a1.83,1.83,0,0,1,2.27,2C1482.75,295.52,1482.71,298.51,1482.71,302.05Z"/><path d="M1411,307.32c-1.6-.12-2.57-.21-3.55-.26s-2.1-.11-2.15-1.46,1-1.61,2-1.59c2.3.07,4.63-.36,7.06.35.82,3.8.27,7.62.35,11.4a2.32,2.32,0,0,1-2,2.48,21.57,21.57,0,0,1-12.75,0c-4.54-1.49-7-4.79-8.12-9.3-1.35-5.57-.38-10.66,3.82-14.69,4.49-4.3,10-4.8,15.82-3.44,1,.23,2,.68,1.76,2-.29,1.67-1.55,1.44-2.71,1.18a14,14,0,0,0-6.41-.27c-6,1.38-9.48,6.32-8.68,12.57s5.41,10.12,11.69,9.76c3.2-.18,3.74-.7,3.84-3.82C1411.07,310.77,1411,309.3,1411,307.32Z"/><path d="M1458.68,317.24c-.75.8-1.26,2.12-2.74,1.58-1.18-.43-1.11-1.53-1.11-2.51,0-8.32,0-16.64,0-25,0-1.35.37-2.23,1.94-2.24s2,.92,2,2.25c0,2.78,0,5.57,0,8.53,7.61-2.71,11-2.11,13.76,2.09,2.58,4,2,11.17-1.06,14.53S1464.37,320.11,1458.68,317.24Zm.14-9a24.33,24.33,0,0,0,0,3,5.38,5.38,0,0,0,4.72,4.93,5.5,5.5,0,0,0,5.68-3.12,9,9,0,0,0,.93-4.79c-.13-4.29-2.63-7.16-6.06-7C1460.94,301.35,1458.87,304.06,1458.82,308.26Z"/><path d="M769.16,226.23c3.13-.79,6-.31,9-.35a13.91,13.91,0,0,1,.47,2.27c0,3.64,0,7.28,0,11a16.45,16.45,0,0,1-9.6.09A70.16,70.16,0,0,1,769.16,226.23Z"/><path class="cls-1" d="M400.79,339.9c26.58,4,53.08,2.78,79.5-1.44,23.56-3.76,46.44-10.15,69-17.82,1.58-.54,3.13-1.16,4.84-.62l-.09-.08c.41,2.16-.93,3.32-2.44,4.5-39.83,31.1-84,52.51-134.59,59.08-37.17,4.82-72.6-2-106.87-16.32-55.41-23.09-103.36-56.79-144.24-100.63-12.76-13.68-26.47-26.2-43.65-34.39C100.08,221.61,76.62,218,52.29,218.83c-10,.35-19.93,1-29.69,3.27a2.54,2.54,0,0,1-3.08-1c17.61-9.3,59.27-17,92.82-9.19,32.15,7.49,56.35,27,79.17,49.25.31-3.21-2.26-4.38-3.68-6.05-11.44-13.41-21.53-27.92-33.64-40.77-22.16-23.49-50.06-35.08-81.6-39.06-16.43-2.07-32.9-1.59-49.67-.29,32.83-12.94,103.62-18.66,150.94,31,.69-2.56-1-4.09-2.23-5.74-21.12-29.18-50.2-45.38-85.21-51.84a211.33,211.33,0,0,0-45.28-3.06,33.1,33.1,0,0,1-5.78-.27c8.18-2.9,16.68-4.23,25.21-5.19,30.34-3.41,59.43.58,86.83,14.73,19.23,9.93,34.17,24.71,47.3,41.46A486.8,486.8,0,0,0,304.93,299.38a24.25,24.25,0,0,1,6.58,6.62c14.63,21.4,35.26,29.91,60.76,27.69A167.3,167.3,0,0,0,400.79,339.9Z"/><path class="cls-2" d="M400.79,339.9a167.3,167.3,0,0,1-28.52-6.21c11.11-2.12,21.27-6.29,30.17-13.44,25.64-20.58,30.31-58.9,10.36-85a71.25,71.25,0,0,0-15.9-14.93c-.42-14.23,1.89-28,.07-41.69-3.44-25.83-10.29-50.66-23.53-73.49-11.75-20.29-28.89-33.5-51.05-40.6-5.51-1.76-11-3.55-16.82-5.42l2.94-1.92c-.59-1.08-2.4-.41-2.6-1.93.23-.19.43-.49.68-.54,75.41-15.68,151,24.87,176.08,97.67,20.7,60.07,2.93,127.36-50.09,168a166.75,166.75,0,0,1-28.46,17.44A36.2,36.2,0,0,0,400.79,339.9Z"/><path class="cls-3" d="M422.2,272.57c1.13,31.35-27.24,58.93-59,58.75-30.92-.17-59-25.44-59.11-58.92-.14-32.08,26.95-59.16,59-59.09C396.83,213.38,423.28,241.41,422.2,272.57Z"/><path class="cls-1" d="M554.12,320l.24-.69c.7.64-.09.48-.33.61Z"/></svg>