<svg viewBox="0 0 345 78" fill="none" xmlns="http://www.w3.org/2000/svg">
<path d="M227.053 11.496C227.241 10.584 227.053 9.621 227.179 8.623C227.773 8.50876 228.381 8.49524 228.979 8.583C229.251 8.89 229.153 9.21599 229.153 9.51399V25.566C229.181 26.9324 228.78 28.2732 228.006 29.3998C227.233 30.5265 226.125 31.3823 224.84 31.847C222.581 32.7152 220.1 32.8206 217.775 32.147C215.929 31.6066 214.358 30.3829 213.383 28.725L214.612 27.741C215.012 27.818 215.124 28.141 215.312 28.371C217.534 31.121 222.033 31.258 224.366 29.958C225.047 29.6173 225.63 29.11 226.062 28.4832C226.494 27.8564 226.761 27.1305 226.837 26.373C226.907 25.1482 226.916 23.9207 226.863 22.695C226.63 22.588 226.554 22.748 226.463 22.856C225.846 23.6306 225.076 24.2708 224.203 24.7374C223.329 25.204 222.369 25.4871 221.382 25.5695C220.395 25.6518 219.402 25.5315 218.463 25.2161C217.524 24.9006 216.659 24.3966 215.922 23.735C214.956 22.8382 214.19 21.7472 213.675 20.5336C213.16 19.32 212.907 18.0111 212.934 16.693C212.96 15.3749 213.265 14.0773 213.829 12.8854C214.392 11.6934 215.201 10.6341 216.203 9.777C218.643 7.816 223.003 7.55799 225.578 10.142C226.034 10.612 226.539 11.031 227.053 11.496ZM226.904 17.126C226.875 16.5837 226.875 16.0403 226.904 15.498C226.944 14.9574 226.868 14.4145 226.681 13.9057C226.494 13.3969 226.201 12.9339 225.82 12.548C225.023 11.5938 223.976 10.8807 222.796 10.489C221.974 10.1896 221.088 10.1085 220.224 10.2536C219.361 10.3988 218.55 10.7651 217.871 11.317C217.049 11.9789 216.384 12.814 215.922 13.7628C215.46 14.7115 215.213 15.7505 215.199 16.8057C215.185 17.8608 215.405 18.9059 215.841 19.8666C216.278 20.8272 216.921 21.6796 217.725 22.363C218.37 22.8949 219.122 23.2807 219.93 23.4941C220.738 23.7074 221.582 23.7431 222.405 23.5988C223.229 23.4544 224.011 23.1334 224.698 22.6578C225.385 22.1823 225.961 21.5635 226.386 20.844C226.741 20.3314 226.922 19.7182 226.902 19.095C226.881 18.445 226.904 17.784 226.904 17.126Z" fill="white"/>
<path d="M293.634 67.5251C293.953 67.1167 294.358 66.7837 294.82 66.5501C294.907 66.5613 294.989 66.5931 295.061 66.6429C295.133 66.6926 295.191 66.7589 295.232 66.8361C297.284 69.7721 301.885 70.0721 304.27 68.8581C305.071 68.5023 305.756 67.9285 306.246 67.2021C306.737 66.4757 307.013 65.626 307.043 64.7501C307.106 63.6501 307.054 62.5451 307.054 61.4301C306.939 61.4425 306.828 61.4818 306.73 61.5449C306.633 61.6079 306.552 61.6929 306.493 61.7931C303.593 65.2171 297.806 65.6641 294.526 60.6831C293.464 58.9982 292.963 57.0206 293.094 55.0335C293.225 53.0464 293.982 51.1518 295.256 49.6211C295.878 48.864 296.648 48.2419 297.518 47.7932C298.389 47.3445 299.343 47.0785 300.32 47.0116C301.297 46.9448 302.278 47.0784 303.202 47.4044C304.126 47.7303 304.973 48.2417 305.692 48.9071C306.192 49.3841 306.708 49.8381 307.244 50.3211C307.325 49.599 307.347 48.8717 307.311 48.1461C307.344 47.2641 307.337 47.2601 308.242 47.2571C308.558 47.2088 308.88 47.2507 309.173 47.3781C309.429 47.6551 309.317 48.0221 309.32 48.3531C309.32 53.5831 309.29 58.8221 309.336 64.0401C309.381 65.7621 308.787 67.4398 307.667 68.749C306.547 70.0581 304.982 70.9058 303.274 71.1281C301.748 71.4021 300.185 71.398 298.661 71.1161C297.615 70.9112 296.626 70.4846 295.758 69.8652C294.891 69.2458 294.167 68.4479 293.634 67.5251ZM307.087 55.8091C307.059 55.2668 307.059 54.7234 307.087 54.1811C307.124 53.6977 307.058 53.212 306.895 52.7555C306.732 52.2989 306.475 51.8818 306.14 51.5311C305.772 51.0837 305.358 50.6753 304.907 50.3121C304.278 49.7746 303.538 49.3848 302.739 49.1713C301.94 48.9579 301.103 48.9262 300.29 49.0787C299.477 49.2311 298.709 49.5637 298.042 50.0522C297.374 50.5406 296.825 51.1724 296.434 51.9011C295.721 53.0195 295.337 54.3158 295.326 55.642C295.315 56.9683 295.677 58.2709 296.371 59.4011C296.83 60.2625 297.497 60.9949 298.313 61.531C299.128 62.0671 300.065 62.3898 301.038 62.4695C302.011 62.5491 302.988 62.3831 303.88 61.9868C304.771 61.5904 305.549 60.9764 306.142 60.2011C306.476 59.8483 306.733 59.4295 306.896 58.9716C307.06 58.5137 307.125 58.0268 307.089 57.5421C307.05 56.9751 307.087 56.3911 307.087 55.8101V55.8091Z" fill="white"/>
<path d="M306.808 25.269C306.179 25.3662 305.54 25.381 304.908 25.313C304.638 24.455 304.529 12.425 304.757 8.67502C305.407 8.49735 306.09 8.47271 306.751 8.60302V11.751C307.216 11.644 307.295 11.286 307.484 11.051C308.158 10.1457 309.043 9.41832 310.062 8.93184C311.08 8.44536 312.202 8.21442 313.33 8.25902C314.346 8.22073 315.346 8.52324 316.17 9.11847C316.995 9.7137 317.597 10.5675 317.88 11.544C317.943 11.725 317.98 11.916 318.029 12.102C318.401 12.144 318.466 11.821 318.604 11.637C319.118 10.864 319.746 10.1723 320.465 9.58502C321.252 8.98075 322.166 8.56226 323.137 8.36086C324.109 8.15947 325.114 8.18038 326.076 8.42202C326.648 8.54899 327.183 8.8054 327.64 9.17152C328.098 9.53765 328.465 10.0038 328.714 10.534C329.204 11.505 329.496 12.564 329.572 13.649C329.681 14.8091 329.73 15.9739 329.719 17.139C329.705 19.465 329.719 21.792 329.719 24.118C329.796 24.5125 329.74 24.9214 329.561 25.281C328.944 25.3601 328.321 25.3795 327.7 25.339C327.363 24.981 327.467 24.613 327.467 24.278C327.458 21.6027 327.458 18.928 327.467 16.254C327.49 15.2463 327.394 14.2393 327.181 13.254C327.102 12.7019 326.893 12.1765 326.572 11.7206C326.25 11.2647 325.826 10.8915 325.332 10.6314C324.839 10.3713 324.291 10.2317 323.733 10.2242C323.176 10.2167 322.624 10.3413 322.124 10.588C321.025 11.0295 320.079 11.7834 319.404 12.7567C318.728 13.7299 318.353 14.8797 318.324 16.064V24.09C318.379 24.4836 318.33 24.8849 318.18 25.253C317.566 25.3637 316.94 25.3927 316.319 25.339C315.977 24.971 316.086 24.604 316.086 24.269C316.077 21.595 316.077 18.9204 316.086 16.245C316.093 15.3148 316.015 14.3859 315.853 13.47C315.318 10.55 313.189 9.80802 310.867 10.546C309.757 10.9617 308.795 11.696 308.101 12.6568C307.407 13.6175 307.013 14.7618 306.967 15.946V24.088C307.029 24.4888 306.974 24.8989 306.808 25.269Z" fill="white"/>
<path d="M177.351 25.268C176.605 25.3813 175.846 25.3586 175.108 25.201V10.456C174.384 10.056 173.598 10.456 172.926 10.135C172.762 9.65025 172.733 9.13003 172.842 8.63002C173.554 8.39703 174.266 8.63002 175.029 8.44903C175.104 7.78403 175.155 7.10002 175.262 6.42502C175.311 5.54781 175.585 4.69794 176.057 3.95667C176.528 3.21539 177.182 2.60747 177.956 2.19103C179.043 1.61917 180.265 1.35424 181.491 1.42471C182.717 1.49519 183.9 1.8984 184.914 2.59102C185.41 2.93355 185.823 3.38308 186.122 3.90646C186.422 4.42983 186.599 5.01371 186.643 5.61503C186.69 6.12391 186.705 6.63527 186.687 7.14602V20.986C186.653 21.5287 186.749 22.0716 186.966 22.57C187.086 22.8573 187.291 23.1007 187.554 23.2672C187.817 23.4338 188.125 23.5154 188.436 23.501C189.042 23.4864 189.643 23.3963 190.227 23.233C190.665 23.766 190.518 24.396 190.864 24.959C189.451 25.6137 187.847 25.732 186.353 25.292C185.83 25.1248 185.372 24.7988 185.043 24.3594C184.713 23.92 184.529 23.389 184.515 22.84C184.492 22.533 184.515 22.221 184.515 21.909V7.71803C184.528 7.09693 184.465 6.47659 184.326 5.87103C184.18 5.24386 183.844 4.67683 183.365 4.24668C182.885 3.81653 182.285 3.54402 181.646 3.46602C180.977 3.32551 180.281 3.39777 179.655 3.67267C179.029 3.94757 178.505 4.41134 178.156 4.99902C177.589 6.04469 177.33 7.22935 177.409 8.41603C178.488 8.67903 179.614 8.40203 180.761 8.58603C180.93 9.11448 180.937 9.68139 180.782 10.214L177.35 10.314L177.351 25.268Z" fill="white"/>
<path d="M155.995 55.8791V64.1191C155.286 64.1999 154.571 64.1999 153.862 64.1191C153.69 63.7502 153.638 63.337 153.713 62.9371V42.0261C153.743 41.2721 153.757 41.2261 154.506 41.2261C156.711 41.2121 158.926 41.2261 161.122 41.2261C161.662 41.2261 162.206 41.2471 162.75 41.2261C164.392 41.1776 165.998 41.7052 167.292 42.7173C168.585 43.7293 169.483 45.162 169.831 46.7671C170.192 48.2783 170.074 49.8643 169.494 51.3058C168.915 52.7473 167.902 53.9732 166.595 54.8141C165.561 55.4337 164.371 55.7459 163.166 55.7141H157.248C156.823 55.6744 156.395 55.7308 155.995 55.8791ZM156.132 43.2511C155.909 46.7188 155.934 50.1979 156.206 53.6621C158.623 53.6621 161.057 53.6951 163.49 53.6481C164.074 53.6369 164.648 53.4896 165.165 53.2177C165.683 52.9459 166.129 52.557 166.47 52.0821C167.143 51.2723 167.574 50.2884 167.711 49.2444C167.849 48.2003 167.688 47.1386 167.247 46.1821C166.953 45.3517 166.416 44.6296 165.704 44.1106C164.992 43.5916 164.14 43.3 163.26 43.2741C160.908 43.1861 158.549 43.2551 156.132 43.2551V43.2511Z" fill="white"/>
<path d="M242.072 40.7031C244.114 40.3351 244.114 40.3351 244.117 42.3031V49.1631C244.071 49.552 244.096 49.9461 244.191 50.3261C244.558 50.4101 244.624 50.0721 244.782 49.8911C245.804 48.5564 247.245 47.6052 248.874 47.1911C250.2 46.8575 251.595 46.9267 252.882 47.3898C254.168 47.8529 255.288 48.6889 256.097 49.791C257.332 51.3984 258.032 53.3521 258.099 55.3778C258.166 57.4035 257.597 59.3993 256.472 61.0851C255.88 61.9866 255.1 62.7494 254.185 63.3212C253.271 63.893 252.243 64.2602 251.174 64.3976C250.104 64.5351 249.017 64.4395 247.988 64.1175C246.958 63.7955 246.011 63.2546 245.21 62.5321C244.81 62.1811 244.435 61.8061 243.989 61.3871C243.742 62.2591 244.019 63.1571 243.812 64.0371C243.272 64.1857 242.706 64.2168 242.153 64.1281C242.088 64.0651 242.053 64.0401 242.032 64.0121C242.002 63.9862 241.983 63.9509 241.976 63.9121C241.957 56.5514 241.942 49.1891 241.929 41.8251C241.923 41.5144 241.934 41.2036 241.961 40.8941C241.97 40.8311 242.035 40.7691 242.072 40.7031ZM249.982 49.0031C247.144 48.8911 244.964 51.3291 244.236 53.0651C244.149 53.3223 244.111 53.5937 244.124 53.8651C244.112 55.1841 244.124 56.5011 244.124 57.8201C244.108 58.4836 244.291 59.1366 244.65 59.6951C245.074 60.368 245.63 60.9481 246.285 61.4006C246.939 61.8531 247.678 62.1686 248.457 62.3281C249.237 62.4877 250.04 62.488 250.82 62.329C251.599 62.17 252.338 61.8551 252.993 61.403C254.278 60.4475 255.202 59.0858 255.615 57.539C256.029 55.9922 255.907 54.3511 255.27 52.8821C254.879 51.7792 254.166 50.8193 253.223 50.1274C252.279 49.4354 251.149 49.0433 249.98 49.002L249.982 49.0031Z" fill="white"/>
<path d="M153.796 2.58001C154.182 2.44952 154.592 2.40983 154.996 2.46402C157.629 2.46402 160.265 2.55201 162.906 2.43801C164.505 2.42765 166.06 2.9627 167.315 3.95492C168.569 4.94714 169.448 6.33727 169.806 7.89601C170.223 9.50209 170.089 11.2016 169.426 12.7226C168.762 14.2436 167.608 15.498 166.147 16.285C165.315 16.7018 164.396 16.9169 163.465 16.913H156.844C156.611 16.913 156.379 16.941 156.113 16.957C155.981 17.8745 155.946 18.8031 156.006 19.728C155.983 20.638 156.006 21.512 156.006 22.403V25.211C155.312 25.3653 154.595 25.3927 153.891 25.292C153.663 24.445 153.586 4.52501 153.796 2.58001ZM156.096 4.59201C155.903 8.00881 155.936 11.4346 156.196 14.847C158.69 14.847 161.202 14.868 163.712 14.847C164.535 14.8049 165.316 14.4681 165.912 13.898C166.579 13.3007 167.084 12.5437 167.378 11.698C168.634 8.37401 166.524 4.16501 162.318 4.44001C160.662 4.54901 158.991 4.45402 157.328 4.46302C156.913 4.39711 156.487 4.4416 156.094 4.59201H156.096Z" fill="white"/>
<path d="M250.538 17.801H236.301C236.092 19.848 237.962 22.872 240.551 23.677C241.845 24.0692 243.233 24.0202 244.496 23.5378C245.76 23.0554 246.827 22.1669 247.53 21.012C248.14 21.0717 248.736 21.2287 249.296 21.477C249.275 21.9028 249.097 22.3057 248.796 22.608C247.653 24.1524 245.957 25.1939 244.062 25.514C237.485 26.8 233.021 21.064 233.94 15.471C234.154 13.7445 234.911 12.1307 236.102 10.8618C237.292 9.59287 238.854 8.73441 240.563 8.41002C246.709 7.33802 250.224 11.874 250.534 16.227C250.568 16.677 250.538 17.14 250.538 17.801ZM248.361 15.94C247.979 12.304 245.218 9.78702 241.928 9.97502C240.4 10.0575 238.962 10.7214 237.908 11.8306C236.855 12.9398 236.265 14.4101 236.261 15.94H248.361Z" fill="white"/>
<path d="M206.679 20.972C207.312 21.057 207.926 21.2505 208.494 21.544C208.094 22.6099 207.359 23.5175 206.4 24.131C205.231 24.9738 203.866 25.5029 202.434 25.6678C201.002 25.8326 199.552 25.6277 198.222 25.0727C196.892 24.5176 195.727 23.631 194.837 22.4973C193.947 21.3636 193.363 20.0208 193.14 18.597C192.801 17.0721 192.887 15.4834 193.388 14.0039C193.889 12.5244 194.787 11.2108 195.983 10.206C197.053 9.28554 198.341 8.65458 199.725 8.37332C201.108 8.09206 202.54 8.16988 203.885 8.59936C205.23 9.02885 206.442 9.79567 207.406 10.8267C208.371 11.8577 209.055 13.1186 209.393 14.489C209.713 15.5592 209.778 16.6892 209.584 17.789H195.444C195.464 19.1012 195.892 20.3745 196.669 21.432C197.446 22.4894 198.534 23.2784 199.78 23.689C201.068 24.066 202.446 24.0037 203.695 23.5118C204.944 23.0199 205.994 22.1264 206.679 20.972ZM195.324 15.854C195.464 15.924 195.531 15.984 195.598 15.987C199.351 15.9997 203.103 16.0067 206.853 16.008C207.009 16.0052 207.164 15.9904 207.318 15.964C207.351 15.964 207.379 15.92 207.409 15.897L207.488 15.825C207.4 14.2825 206.74 12.8282 205.637 11.7463C204.534 10.6644 203.067 10.0325 201.523 9.97404C199.927 9.95684 198.387 10.562 197.229 11.6612C196.072 12.7604 195.388 14.2672 195.323 15.862L195.324 15.854Z" fill="white"/>
<path d="M267.434 17.905C267.502 19.2563 267.993 20.552 268.839 21.6078C269.686 22.6636 270.843 23.4258 272.147 23.786C273.391 24.087 274.699 23.9807 275.878 23.4827C277.057 22.9848 278.045 22.1215 278.696 21.02C279.345 21.0526 279.979 21.223 280.557 21.52C280.18 22.5609 279.475 23.4515 278.549 24.058C276.678 25.3085 274.396 25.786 272.181 25.3903C269.966 24.9946 267.99 23.7566 266.668 21.9358C265.346 20.115 264.78 17.853 265.089 15.6241C265.399 13.3953 266.559 11.3729 268.327 9.981C269.406 9.13119 270.679 8.56376 272.033 8.33006C273.386 8.09637 274.776 8.20379 276.077 8.6426C277.378 9.08142 278.55 9.83777 279.485 10.8432C280.421 11.8487 281.09 13.0715 281.434 14.401C281.662 15.2241 281.767 16.0762 281.746 16.93C281.746 17.702 281.683 17.751 280.869 17.784H268.669C268.254 17.7371 267.833 17.7783 267.434 17.905ZM267.434 15.89C271.465 16.0951 275.505 16.0781 279.534 15.839C279.447 14.2588 278.76 12.7716 277.612 11.6821C276.464 10.5926 274.943 9.98326 273.36 9.97901C271.799 10.0029 270.307 10.6329 269.202 11.7359C268.096 12.8389 267.462 14.3285 267.434 15.89Z" fill="white"/>
<path d="M278.273 56.51H264.191C263.814 58.455 265.501 61.132 267.699 62.179C270.372 63.449 272.968 62.644 275.439 59.762C276.047 59.8602 276.638 60.0476 277.191 60.318C276.648 61.6252 275.659 62.697 274.399 63.342C273.344 63.9655 272.165 64.3502 270.945 64.4691C269.725 64.588 268.494 64.4381 267.338 64.03C266.182 63.6219 265.13 62.9656 264.255 62.1071C263.38 61.2486 262.704 60.2089 262.274 59.061C261.567 57.3448 261.416 55.4498 261.844 53.6434C262.271 51.837 263.255 50.2104 264.656 48.993C265.76 48.001 267.12 47.3377 268.581 47.0779C270.043 46.8181 271.548 46.9723 272.926 47.523C274.307 48.0123 275.528 48.8693 276.457 50.0016C277.387 51.1339 277.989 52.4984 278.2 53.948C278.415 54.7859 278.44 55.6613 278.273 56.51ZM276.1 54.726C276.082 53.8997 275.896 53.0857 275.553 52.3338C275.209 51.5819 274.717 50.9078 274.104 50.3528C273.492 49.7978 272.773 49.3735 271.991 49.1058C271.209 48.8382 270.38 48.7327 269.556 48.796C266.146 48.996 263.78 52.396 264.124 54.731C265.129 54.879 274.935 54.886 276.1 54.725V54.726Z" fill="white"/>
<path d="M223.231 56.645C223.278 58.0682 223.805 59.4338 224.725 60.5203C225.646 61.6068 226.906 62.3506 228.302 62.631C229.333 62.8592 230.407 62.7884 231.399 62.427C232.391 62.0657 233.26 61.4288 233.902 60.5911C234.746 59.5261 234.537 59.798 235.702 60.028C235.827 60.0398 235.948 60.0768 236.059 60.1368C236.169 60.1968 236.266 60.2785 236.344 60.377C235.758 61.7297 234.698 62.8222 233.364 63.45C232.188 64.1013 230.872 64.4607 229.528 64.4981C228.184 64.5354 226.851 64.2496 225.64 63.6646C224.43 63.0797 223.377 62.2126 222.571 61.1364C221.766 60.0602 221.23 58.8063 221.009 57.48C220.673 56.0164 220.726 54.4904 221.162 53.0536C221.599 51.6167 222.403 50.3189 223.496 49.289C224.398 48.4188 225.487 47.7661 226.679 47.3805C227.872 46.995 229.137 46.8868 230.377 47.0643C231.618 47.2418 232.802 47.7002 233.838 48.4046C234.875 49.109 235.737 50.0409 236.359 51.129C237.134 52.4804 237.542 54.0104 237.545 55.568C237.545 56.48 237.545 56.499 236.663 56.499C235.539 56.511 234.416 56.499 233.294 56.499H224.235C223.908 56.513 223.538 56.409 223.231 56.645ZM235.331 54.672C235.299 53.8598 235.106 53.0621 234.763 52.3251C234.42 51.5881 233.934 50.9265 233.334 50.3787C232.733 49.831 232.03 49.408 231.264 49.1342C230.499 48.8605 229.687 48.7414 228.875 48.784C227.36 48.8727 225.936 49.533 224.89 50.6316C223.843 51.7301 223.253 53.185 223.238 54.702C227.267 54.9042 231.305 54.8942 235.333 54.672H235.331Z" fill="white"/>
<path d="M299.8 25.247C297.883 25.775 297.369 25.333 296.932 22.876C296.829 22.9276 296.732 22.9918 296.644 23.067C295.174 24.6444 293.143 25.581 290.989 25.675C289.846 25.8207 288.687 25.613 287.666 25.0799C286.645 24.5468 285.812 23.7138 285.278 22.693C284.721 21.6565 284.587 20.4444 284.904 19.3111C285.221 18.1778 285.964 17.2112 286.978 16.614C288.792 15.5394 290.917 15.1091 293.006 15.393C294.01 15.4643 295.003 15.646 295.967 15.935C296.078 15.9933 296.201 16.0248 296.326 16.0269C296.451 16.0289 296.575 16.0016 296.688 15.947C296.907 14.7706 296.77 13.5559 296.297 12.457C295.984 11.7208 295.465 11.0912 294.801 10.6444C294.138 10.1976 293.359 9.95296 292.559 9.94002C290.846 9.87019 289.152 10.3263 287.706 11.247C287.376 11.435 287.05 11.631 286.715 11.829C286.278 11.454 286.184 10.943 285.842 10.461C287.338 9.32401 289.1 8.58869 290.96 8.32501C292.074 8.16742 293.207 8.21316 294.305 8.46002C295.57 8.71956 296.71 9.39724 297.543 10.3839C298.375 11.3705 298.852 12.6087 298.895 13.899C298.986 15.441 298.944 16.999 298.953 18.552V22.152C298.953 22.617 298.953 23.101 299.497 23.329C299.602 23.3783 299.689 23.4607 299.743 23.5636C299.797 23.6665 299.816 23.7843 299.797 23.899C299.798 24.363 299.8 24.822 299.8 25.247ZM296.776 19.403V18.635C296.776 17.644 296.776 17.649 295.845 17.355C294.588 16.9587 293.276 16.7656 291.958 16.783C290.869 16.7633 289.791 17.0076 288.817 17.495C288.39 17.6811 288.008 17.9589 287.7 18.3086C287.392 18.6584 287.164 19.0716 287.033 19.519C286.833 20.357 286.95 21.2394 287.361 21.9964C287.773 22.7533 288.45 23.3313 289.262 23.619C290.163 23.9322 291.124 24.032 292.07 23.9105C293.016 23.789 293.921 23.4496 294.713 22.919C296.062 22.1 297.042 20.99 296.765 19.402L296.776 19.403Z" fill="white"/>
<path d="M204.303 64.09C203.661 64.1836 203.01 64.196 202.365 64.127C202.144 63.278 202.072 49.027 202.265 47.4C202.33 47.36 202.395 47.291 202.465 47.286C204.656 47.186 204.182 47.202 204.228 48.945C204.242 49.482 204.228 50.017 204.228 50.597C204.714 50.462 204.81 50.09 205.035 49.85C205.92 48.8145 207.053 48.0199 208.328 47.5403C209.602 47.0606 210.978 46.9116 212.326 47.107C213.101 47.2078 213.832 47.5297 214.429 48.0342C215.026 48.5387 215.466 49.2045 215.695 49.952C216.127 51.1595 216.341 52.4338 216.328 53.716C216.375 57.016 216.349 60.309 216.349 63.603C216.362 63.6998 216.349 63.7981 216.312 63.8883C216.274 63.9785 216.214 64.0574 216.137 64.117C215.501 64.1924 214.858 64.1877 214.223 64.103C214.08 63.7185 214.035 63.3042 214.093 62.898C214.077 59.874 214.07 56.849 214.056 53.825C214.056 52.9736 213.912 52.1284 213.63 51.325C213.43 50.6061 212.98 49.9826 212.359 49.5677C211.739 49.1528 210.991 48.9741 210.25 49.064C209.012 49.1941 207.832 49.658 206.837 50.4061C205.842 51.1543 205.068 52.1587 204.599 53.312C204.483 53.7224 204.437 54.1493 204.462 54.575V62.834C204.527 63.2593 204.472 63.6942 204.303 64.09Z" fill="white"/>
<path d="M182.499 47.295C183.098 47.2102 183.708 47.2329 184.299 47.362C184.471 48.49 184.299 49.612 184.413 50.852C184.755 50.452 185.013 50.121 185.292 49.817C186.187 48.7665 187.34 47.9674 188.637 47.4986C189.935 47.0299 191.333 46.9077 192.692 47.144C193.327 47.2422 193.928 47.4966 194.44 47.8845C194.953 48.2723 195.361 48.7814 195.628 49.366C196.059 50.2392 196.318 51.1871 196.391 52.158C196.505 53.3138 196.56 54.4747 196.556 55.636C196.535 58.036 196.556 60.436 196.556 62.848C196.624 63.2745 196.571 63.7115 196.402 64.109C195.77 64.2081 195.128 64.2168 194.494 64.135C194.297 63.8195 194.231 63.4395 194.31 63.076C194.301 60.4007 194.301 57.727 194.31 55.055C194.323 54.0868 194.239 53.1198 194.061 52.168C193.561 49.642 191.861 48.59 189.361 49.268C188.406 49.5327 187.519 49.9984 186.76 50.634C186 51.2696 185.384 52.0602 184.955 52.953C184.686 53.5133 184.562 54.1323 184.595 54.753C184.609 57.466 184.595 60.178 184.595 62.895C184.647 63.2981 184.61 63.7075 184.488 64.095C183.868 64.2128 183.233 64.2354 182.606 64.162C182.375 63.282 182.291 49.428 182.499 47.295Z" fill="white"/>
<path d="M262.242 22.79C262.512 23.3399 262.722 23.9172 262.868 24.512C261.456 25.357 259.798 25.6936 258.168 25.466C257.407 25.3727 256.71 24.9968 256.213 24.4129C255.717 23.829 255.458 23.0798 255.488 22.314V10.454C254.76 10.072 253.988 10.454 253.288 10.163C253.151 9.6721 253.111 9.15928 253.169 8.65299C253.932 8.40399 254.686 8.65299 255.469 8.41999V3.06499C255.634 2.95299 255.702 2.88098 255.76 2.87398C257.74 2.64098 257.74 2.64099 257.74 4.64199V8.47499H261.44C261.667 9.01415 261.697 9.6157 261.526 10.175C260.293 10.445 259.042 10.075 257.826 10.408C257.789 10.5689 257.765 10.7324 257.752 10.897C257.752 14.421 257.733 17.946 257.752 21.473C257.723 21.7453 257.756 22.0205 257.849 22.2783C257.941 22.5361 258.09 22.7698 258.285 22.9621C258.48 23.1544 258.716 23.3003 258.975 23.3891C259.234 23.4779 259.509 23.5073 259.781 23.475C260.324 23.4809 260.863 23.3765 261.365 23.168C261.649 23.046 261.93 22.923 262.242 22.79Z" fill="white"/>
<path d="M284.821 64.118C284.171 64.1944 283.514 64.1826 282.867 64.083C282.691 63.7635 282.63 63.393 282.695 63.034V47.931C282.66 47.431 282.895 47.247 283.395 47.247C285.138 47.247 284.884 47.207 284.895 48.627V50.953L285.625 49.962C286.136 49.2278 286.791 48.6059 287.551 48.1346C288.312 47.6634 289.16 47.3528 290.045 47.222C291.071 47.073 291.208 47.199 291.208 48.206C291.257 48.5367 291.218 48.8745 291.094 49.185C290.615 49.278 290.087 49.353 289.57 49.485C288.677 49.6767 287.839 50.0672 287.118 50.6274C286.398 51.1877 285.812 51.9033 285.406 52.721C285.122 53.2707 284.978 53.8822 284.987 54.501C285.008 57.293 284.987 60.084 284.987 62.876C285.028 63.2973 284.971 63.7222 284.821 64.118Z" fill="white"/>
<path d="M174.379 47.345C175.05 47.221 175.738 47.2115 176.412 47.317C176.645 48.152 176.735 62.031 176.512 64.067C175.858 64.1867 175.19 64.2055 174.53 64.123C174.474 64.063 174.444 64.037 174.421 64.004C174.398 63.971 174.363 63.944 174.363 63.911C174.348 58.6503 174.333 53.389 174.319 48.127C174.321 47.901 174.356 47.677 174.379 47.345Z" fill="white"/>
<path d="M334.941 15.663C338.057 15.4896 341.18 15.4896 344.295 15.663C344.502 15.928 344.409 16.249 344.416 16.547C344.423 16.845 344.388 17.147 344.374 17.382C344.32 17.4524 344.249 17.5085 344.168 17.5454C344.087 17.5823 343.998 17.599 343.909 17.594H335.816C334.988 17.594 334.976 17.564 334.953 16.757C334.934 16.412 334.941 16.07 334.941 15.663Z" fill="white"/>
<path d="M326.58 58.019C327.901 57.165 328.28 57.177 329.413 58.066C329.676 57.8715 329.953 57.6967 330.241 57.543C330.44 57.4387 330.66 57.3803 330.884 57.372C331.109 57.3637 331.332 57.4057 331.538 57.495C331.745 57.5842 331.928 57.7185 332.076 57.8879C332.223 58.0573 332.331 58.2575 332.391 58.474C332.484 58.7273 332.537 58.9934 332.549 59.263C332.57 60.035 332.563 60.808 332.549 61.589C332.549 61.889 332.591 62.243 332.125 62.259C331.583 62.28 331.641 61.882 331.636 61.54V59.8C331.647 59.5299 331.629 59.2594 331.583 58.993C331.483 58.553 331.255 58.193 330.75 58.162C330.536 58.1515 330.324 58.2084 330.143 58.3248C329.963 58.4412 329.824 58.6113 329.745 58.811C329.6 59.1706 329.544 59.56 329.582 59.946C329.582 60.602 329.582 61.26 329.563 61.916C329.565 61.9645 329.555 62.0128 329.536 62.0574C329.517 62.1021 329.489 62.1421 329.453 62.1746C329.417 62.2071 329.374 62.2314 329.328 62.2458C329.281 62.2602 329.232 62.2644 329.184 62.258C328.972 62.258 328.784 62.179 328.754 61.958C328.721 61.6903 328.705 61.4207 328.707 61.151C328.691 60.451 328.707 59.751 328.656 59.057C328.652 58.8221 328.56 58.5973 328.397 58.4278C328.234 58.2583 328.014 58.1566 327.779 58.143C327.547 58.16 327.326 58.2473 327.145 58.3933C326.965 58.5393 326.833 58.737 326.767 58.96C326.703 59.262 326.672 59.5702 326.676 59.879C326.662 60.461 326.676 61.042 326.676 61.619C326.676 61.952 326.618 62.261 326.185 62.247C325.794 62.235 325.806 61.933 325.806 61.661V57.954C325.806 57.754 325.806 57.554 326.039 57.489C326.382 57.403 326.561 57.57 326.58 58.019Z" fill="white"/>
<path d="M340.391 58.3151H343.341C343.482 57.5668 343.529 56.8039 343.481 56.044C343.5 55.832 343.581 55.669 343.816 55.644C343.929 55.6141 344.049 55.6301 344.151 55.6886C344.252 55.747 344.326 55.8432 344.356 55.956C344.369 55.9921 344.376 56.0299 344.377 56.068V61.756C344.377 61.8359 344.361 61.915 344.331 61.989C344.294 62.0783 344.228 62.1526 344.144 62.1997C344.059 62.2469 343.962 62.2643 343.866 62.249C343.818 62.2525 343.769 62.2459 343.723 62.2296C343.678 62.2133 343.636 62.1878 343.6 62.1545C343.565 62.1213 343.537 62.0811 343.517 62.0364C343.498 61.9917 343.489 61.9436 343.489 61.895C343.47 61.239 343.489 60.581 343.468 59.925C343.447 59.183 343.419 59.1551 342.668 59.1341C342.089 59.1181 341.505 59.1341 340.93 59.1341C340.8 59.1486 340.672 59.1744 340.546 59.2111C340.276 59.7041 340.453 60.256 340.409 60.777C340.377 61.161 340.409 61.5491 340.358 61.9401C340.337 62.1561 340.158 62.2521 339.944 62.2541C339.896 62.262 339.848 62.2603 339.8 62.2491C339.753 62.2379 339.709 62.2174 339.67 62.1888C339.631 62.1602 339.598 62.1241 339.573 62.0825C339.548 62.041 339.532 61.995 339.525 61.947C339.5 61.7558 339.49 61.5629 339.495 61.3701V56.1471C339.495 55.8961 339.569 55.682 339.862 55.654C339.929 55.6369 340 55.6364 340.067 55.6527C340.134 55.6689 340.197 55.7013 340.249 55.7472C340.301 55.793 340.341 55.8508 340.366 55.9156C340.39 55.9804 340.399 56.0502 340.39 56.119C340.4 56.795 340.391 57.4911 340.391 58.3151Z" fill="white"/>
<path d="M323.709 59.5401C323.337 59.5121 323.109 59.4911 322.883 59.4801C322.657 59.4691 322.394 59.4541 322.383 59.1401C322.372 58.8261 322.616 58.7651 322.848 58.7701C323.396 58.7235 323.949 58.7507 324.49 58.8511C324.603 59.7304 324.631 60.6185 324.572 61.5031C324.583 61.6404 324.541 61.7767 324.454 61.884C324.368 61.9912 324.244 62.0614 324.107 62.0801C323.141 62.3789 322.107 62.3789 321.141 62.0801C320.659 61.9246 320.229 61.6411 319.897 61.2599C319.564 60.8787 319.341 60.4142 319.252 59.9161C319.068 59.3202 319.053 58.6848 319.21 58.0812C319.367 57.4775 319.69 56.9297 320.141 56.4991C320.629 56.0531 321.227 55.7442 321.873 55.6037C322.52 55.4632 323.192 55.4961 323.821 55.6991C324.054 55.7531 324.286 55.8571 324.23 56.1641C324.162 56.5521 323.869 56.4991 323.6 56.4381C323.115 56.302 322.604 56.2804 322.109 56.3751C321.455 56.4989 320.877 56.8752 320.499 57.4225C320.121 57.9698 319.973 58.644 320.089 59.2991C320.114 59.6286 320.204 59.9498 320.355 60.2437C320.506 60.5375 320.715 60.7981 320.969 61.0099C321.222 61.2217 321.516 61.3803 321.832 61.4766C322.148 61.5728 322.48 61.6046 322.809 61.5701C323.553 61.5281 323.679 61.4071 323.702 60.6811C323.725 60.3431 323.709 60.0041 323.709 59.5401Z" fill="white"/>
<path d="M334.801 61.848C334.626 62.034 334.508 62.341 334.163 62.216C333.889 62.116 333.905 61.8601 333.905 61.6321V55.8161C333.905 55.5021 333.991 55.2971 334.356 55.2951C334.721 55.2931 334.821 55.509 334.821 55.818V57.802C336.592 57.172 337.38 57.311 338.021 58.288C338.306 58.8164 338.435 59.4153 338.391 60.0141C338.347 60.613 338.133 61.1868 337.774 61.668C337.065 62.451 336.125 62.516 334.801 61.848ZM334.833 59.754C334.819 59.9872 334.819 60.2209 334.833 60.4541C334.855 60.7431 334.977 61.0154 335.178 61.2247C335.378 61.4339 335.645 61.5669 335.933 61.6011C336.202 61.6355 336.475 61.5838 336.712 61.4533C336.949 61.3228 337.139 61.1204 337.254 60.875C337.427 60.5307 337.502 60.1452 337.47 59.7611C337.44 58.7611 336.858 58.095 336.06 58.133C335.327 58.154 334.846 58.7841 334.834 59.7611L334.833 59.754Z" fill="white"/>
<path d="M174.393 40.676C175.085 40.5625 175.788 40.5353 176.487 40.595C176.538 40.7676 176.575 40.9442 176.596 41.123V43.682C175.87 43.9108 175.093 43.9181 174.363 43.703C174.279 42.6952 174.289 41.6819 174.393 40.676Z" fill="white"/>
<path d="M88.697 67.12C94.8423 67.9652 101.081 67.8522 107.192 66.785C112.65 65.86 118.02 64.4731 123.244 62.639C123.593 62.4669 123.989 62.4162 124.37 62.495L124.349 62.476C124.449 62.976 124.133 63.248 123.781 63.523C114.515 70.758 104.24 75.739 92.47 77.267C83.823 78.388 75.581 76.802 67.608 73.467C54.8677 68.1712 43.4216 60.1857 34.053 50.057C31.206 46.7705 27.7597 44.0556 23.898 42.057C18.807 39.7115 13.22 38.6452 7.62302 38.951C5.30148 38.9804 2.98828 39.2352 0.716024 39.712C0.58808 39.7627 0.446443 39.7672 0.315548 39.7247C0.184652 39.6821 0.072706 39.5952 -0.000976562 39.479C4.09902 37.315 13.787 35.524 21.592 37.341C29.071 39.083 34.701 43.622 40.01 48.798C40.082 48.051 39.484 47.779 39.154 47.391C36.493 44.271 34.145 40.891 31.328 37.906C26.173 32.441 19.682 29.745 12.345 28.819C8.50562 28.4045 4.63398 28.382 0.790024 28.752C8.42702 25.742 24.896 24.411 35.904 35.964C36.065 35.364 35.671 35.013 35.385 34.629C30.472 27.841 23.707 24.072 15.562 22.569C12.0864 21.9542 8.55474 21.7155 5.02802 21.857C4.57871 21.8753 4.12866 21.8542 3.68302 21.794C5.58537 21.1685 7.55326 20.7635 9.54803 20.587C16.473 19.6612 23.5159 20.8561 29.748 24.014C34.0724 26.3908 37.8264 29.6823 40.748 33.659C47.9934 42.955 56.6456 51.0629 66.392 57.69C66.9973 58.0993 67.5173 58.6223 67.923 59.23C71.323 64.208 76.123 66.188 82.058 65.672C84.2246 66.3473 86.446 66.8318 88.697 67.12Z" fill="#30ABE1"/>
<path d="M88.698 67.117C86.4485 66.8296 84.2284 66.346 82.063 65.672C84.6264 65.2297 87.0389 64.1549 89.082 62.545C91.958 60.1971 93.8148 56.8281 94.264 53.1427C94.7132 49.4573 93.7199 45.7409 91.492 42.771C90.4443 41.4303 89.1963 40.2589 87.7921 39.298C87.6921 35.988 88.232 32.784 87.808 29.598C87.1373 23.591 85.2764 17.7778 82.334 12.498C79.7397 7.9375 75.4855 4.55411 70.458 3.05301C69.176 2.64401 67.899 2.227 66.545 1.792L67.229 1.34501C67.092 1.09401 66.6711 1.245 66.6291 0.896004C66.6821 0.852004 66.729 0.782005 66.787 0.770005C84.33 -2.878 101.915 6.556 107.75 23.492C110.198 30.4009 110.388 37.9087 108.294 44.9329C106.2 51.9571 101.929 58.1347 96.097 62.575C94.0313 64.1454 91.8132 65.5045 89.476 66.632C89.2081 66.7794 88.9484 66.9413 88.698 67.117Z" fill="#9D9D9C"/>
<path d="M93.678 51.4602C93.941 58.7532 87.341 65.1692 79.952 65.1272C78.1396 65.1443 76.3418 64.8023 74.6623 64.121C72.9828 63.4396 71.4548 62.4324 70.1666 61.1575C68.8784 59.8826 67.8554 58.3652 67.1567 56.6928C66.4579 55.0205 66.0973 53.2263 66.0956 51.4138C66.0939 49.6014 66.4511 47.8065 67.1466 46.1329C67.8422 44.4592 68.8623 42.9398 70.1481 41.6625C71.434 40.3851 72.96 39.375 74.6382 38.6905C76.3164 38.006 78.1136 37.6606 79.926 37.6742C87.776 37.6862 93.93 44.2072 93.678 51.4602Z" fill="#CBBB9F"/>
<path d="M124.368 62.4891L124.424 62.3291C124.587 62.4781 124.403 62.4411 124.347 62.4711L124.368 62.4891Z" fill="#30ABE1"/>
</svg>
