<svg viewBox="0 0 975 609" fill="none" xmlns="http://www.w3.org/2000/svg">
<g opacity="0.15" clip-path="url(#clip0_647_10)">
<path d="M694.687 526.573C743.127 533.947 791.404 531.648 839.552 523.945C882.463 517.082 924.168 505.419 965.235 491.42C968.119 490.434 970.93 489.303 974.051 490.288L973.887 490.142C974.635 494.085 972.207 496.202 969.451 498.356C896.863 555.12 816.464 594.198 724.218 606.189C656.485 615.005 591.947 602.484 529.489 576.42C428.537 534.258 341.165 472.748 266.697 392.749C243.444 367.762 218.457 344.91 187.174 329.98C146.782 310.688 104.036 304.062 59.7021 305.613C41.5231 306.252 23.3807 307.366 5.60334 311.582C3.41311 312.093 1.35064 311.965 0 309.775C32.1051 292.8 107.997 278.746 169.122 293.019C227.711 306.69 271.808 342.245 313.386 382.911C313.933 377.034 309.206 375.008 306.687 371.85C288.143 348.652 269.709 325.289 250.197 302.912C209.441 256.168 156.328 233.481 95.8044 226.071C66.1633 222.439 36.4674 223.278 6.27866 225.614C65.9442 202.051 195.022 191.556 281.244 282.141C282.485 277.469 279.364 274.676 277.174 271.665C238.699 218.405 185.713 188.836 121.923 177.064C94.6545 172.026 67.1124 170.584 39.4242 171.479C35.9381 171.588 32.4337 171.497 28.8746 170.986C43.7864 165.693 59.2823 163.265 74.8329 161.513C130.1 155.271 183.103 162.572 233.022 188.398C268.066 206.541 295.28 233.499 319.208 264.072C376.483 337.263 443.139 400.415 520.071 452.671C524.907 455.956 528.704 459.862 532.062 464.754C558.71 503.813 596.291 519.346 642.742 515.294C659.734 520.368 676.982 524.493 694.687 526.573Z" fill="#8C8C8C"/>
<path d="M694.687 526.574C677.001 524.493 659.753 520.368 642.724 515.239C662.983 511.388 681.472 503.758 697.698 490.726C744.423 453.164 752.929 383.221 716.589 335.602C708.211 324.632 698.063 315.689 687.623 308.351C686.857 282.36 691.073 257.191 687.751 232.258C681.472 185.095 668.988 139.793 644.877 98.1053C623.468 61.0717 592.22 36.9607 551.847 24.0199C541.809 20.8076 531.788 17.5404 521.202 14.1273C523.192 12.8314 524.889 11.718 526.568 10.6229C525.491 8.65165 522.188 9.87455 521.823 7.10022C522.243 6.75344 522.608 6.20587 523.064 6.11461C660.464 -22.5047 798.175 51.4894 843.896 184.383C881.66 294.133 849.153 416.897 752.637 490.982C736.411 503.43 719.071 513.834 700.783 522.795C698.629 523.836 696.694 525.314 694.687 526.574Z" fill="#9D9D9D"/>
<path d="M733.71 403.536C735.9 460.665 684.101 511.26 626.443 510.949C571.158 510.657 518.957 465.776 518.574 403.554C518.227 344.563 567.818 295.1 626.881 295.538C687.806 295.994 735.553 346.936 733.71 403.536Z" fill="#BDBDBD"/>
<path d="M974.051 490.288C974.197 489.868 974.343 489.449 974.489 489.029C975.767 490.197 974.325 489.905 973.887 490.142L974.051 490.288Z" fill="#30ABE1"/>
</g>
<defs>
<clipPath id="clip0_647_10">
<rect width="975" height="609" fill="white"/>
</clipPath>
</defs>
</svg>
