<svg width="155" height="139" viewBox="0 0 155 139" fill="none" xmlns="http://www.w3.org/2000/svg">
<g clip-path="url(#clip0_581_196)">
<path d="M147.713 94.5445C149.072 94.5445 150.307 94.5445 151.48 94.5445C153.765 94.5445 155 95.5242 155 97.1775C155 98.8308 153.765 99.6881 151.604 99.6881C136.598 99.6881 121.592 99.6881 106.586 99.6881C106.03 99.6881 105.412 99.6881 104.671 99.6881C104.61 100.362 104.548 100.913 104.548 101.464C104.548 106.424 104.548 111.384 104.548 116.344C104.548 119.222 103.807 119.956 100.904 119.956C86.0219 119.956 71.0777 119.956 56.1953 119.956C55.516 119.956 54.8367 119.956 54.0339 119.956C54.0339 125.161 54.0339 130.06 54.0339 135.02C54.0339 138.265 53.3546 138.939 50.0817 138.939C34.767 138.939 19.3905 138.939 4.07574 138.939C3.64346 138.939 3.21119 138.939 2.77892 138.939C1.17334 138.816 0.0617909 137.714 0.123544 136.306C0.185297 134.836 1.2351 133.856 2.96418 133.856C8.27494 133.856 13.6474 133.734 18.9582 133.918C20.749 133.979 21.4901 133.55 21.9223 131.652C25.6893 115.18 29.765 98.7696 33.4702 82.2978C35.261 74.3374 36.3108 66.2546 37.6694 58.1718C37.9164 55.3551 38.4104 52.5383 38.9044 49.4154C34.767 50.7626 30.9383 51.9872 27.1714 53.3344C26.6773 53.5181 26.2451 54.1916 25.9363 54.6815C22.9721 60.6824 20.0698 66.6833 17.1056 72.6229C14.8825 77.0317 10.1893 78.685 5.99008 76.5418C2.22315 74.6436 0.308803 70.1736 2.09964 66.3159C5.80482 58.5392 9.69526 50.8238 13.5239 43.0471C14.3885 41.2714 15.9323 40.1079 17.8467 39.3731C26.3686 36.189 34.8905 32.9436 43.4741 29.7595C44.5239 29.3921 45.6972 29.1471 46.8088 29.2084C55.8247 29.7595 64.8407 30.3718 73.8566 30.9841C76.6973 31.1678 78.8586 32.4537 80.4024 34.7806C82.8726 38.4546 85.3427 42.1286 87.8745 45.8026C88.1833 46.2313 88.4921 46.6599 88.8626 47.211C90.9004 45.6802 92.9383 44.1493 94.9144 42.6185C98.9901 39.6181 103.93 40.1079 106.771 43.8432C109.612 47.5784 108.809 52.4771 104.795 55.5388C100.657 58.7229 96.52 61.8458 92.3825 64.9687C87.998 68.2753 83.3048 67.6018 79.9702 63.2542C76.9443 59.274 73.8566 55.2938 70.769 51.3137C70.5219 51.0075 70.2132 50.7013 69.8427 50.2114C67.1255 57.5595 64.4702 64.7238 61.753 72.1943C62.5558 72.2555 63.1116 72.2555 63.6674 72.2555C67.7431 72.2555 71.8188 72.2555 75.9562 72.2555C80.2789 72.2555 83.1813 74.5211 84.3546 78.6238C87.504 90.0132 90.5917 101.464 93.6176 112.915C93.9881 114.384 94.5439 114.996 96.0877 114.813C97.0757 114.69 98.1255 114.813 99.3606 114.813C99.3606 114.078 99.3606 113.527 99.3606 112.915C99.3606 107.893 99.3606 102.872 99.3606 97.8511C99.3606 95.3405 100.225 94.4833 102.757 94.4833C115.293 94.4833 127.829 94.4833 140.365 94.4833C140.982 94.4833 141.661 94.4833 142.402 94.4833M142.402 94.5445C142.402 74.0925 142.402 53.763 142.402 33.2498C141.723 33.2498 141.106 33.2498 140.488 33.2498C130.237 33.2498 120.048 33.2498 109.797 33.2498C106.709 33.2498 105.968 32.515 105.968 29.4533C105.968 20.8806 105.968 12.2467 105.968 3.67401C105.968 0.734802 106.709 0 109.673 0C121.159 0 132.584 0 144.07 0C146.972 0 147.651 0.673568 147.651 3.61278C147.651 33.1885 147.651 62.7643 147.651 92.2788C147.651 92.9524 147.651 93.626 147.651 94.5445M75.5239 114.874C75.5239 114.445 75.5857 114.262 75.5239 114.139C72.9303 106.24 70.3367 98.341 67.7431 90.4418C67.4343 89.5846 66.8785 89.5233 66.1375 89.5233C62.0618 89.5233 57.9861 89.5846 53.8486 89.5233C52.6753 89.5233 52.2431 89.952 51.9343 90.9317C47.6733 104.77 43.4124 118.609 39.0897 132.448C38.9662 132.877 38.9044 133.367 38.8427 133.795C42.2391 133.795 45.3885 133.795 48.6614 133.795C48.6614 128.59 48.6614 123.569 48.6614 118.487C48.6614 115.67 49.4642 114.874 52.3048 114.874C59.3447 114.874 66.3845 114.874 73.4243 114.874C74.2271 114.874 74.8447 114.874 75.5239 114.874Z" fill="#0E657A"/>
<path d="M76.1407 14.0838C76.1407 20.942 70.3977 26.5754 63.4814 26.6367C56.5033 26.6367 50.6985 20.8807 50.7603 14.0226C50.822 7.16444 56.5033 1.53096 63.4196 1.46972C70.3977 1.40849 76.2025 7.16444 76.1407 14.0838Z" fill="#0E657A"/>
<path d="M142.403 94.5445C142.403 74.0925 142.403 53.763 142.403 33.2498C141.724 33.2498 141.106 33.2498 140.489 33.2498C130.238 33.2498 120.048 33.2498 109.797 33.2498C106.71 33.2498 105.969 32.515 105.969 29.4533C105.969 20.8806 105.969 12.2467 105.969 3.67401C105.969 0.734802 106.71 0 109.674 0C121.16 0 132.584 0 144.07 0C146.973 0 147.652 0.673568 147.652 3.61278C147.652 33.1885 147.652 62.7643 147.652 92.2789C147.652 92.9524 147.652 93.626 147.652 94.5445" fill="#FF6F59"/>
</g>
<defs>
<clipPath id="clip0_581_196">
<rect width="155" height="139" fill="white"/>
</clipPath>
</defs>
</svg>
